solid CATIA STL
  facet normal  2.393157e-001 -9.709418e-001  0.000000e+000
    outer loop
      vertex -3.013417e+000  2.481772e+001  0.000000e+000
      vertex -8.865122e+000  2.337541e+001  5.000000e+001
      vertex -8.865122e+000  2.337541e+001  0.000000e+000
    endloop
  endfacet
  facet normal  4.647233e-001 -8.854560e-001  0.000000e+000
    outer loop
      vertex -8.865122e+000  2.337541e+001  0.000000e+000
      vertex -8.865122e+000  2.337541e+001  5.000000e+001
      vertex -1.420162e+001  2.057460e+001  5.000000e+001
    endloop
  endfacet
  facet normal  4.647233e-001 -8.854560e-001  0.000000e+000
    outer loop
      vertex -8.865122e+000  2.337541e+001  0.000000e+000
      vertex -1.420162e+001  2.057460e+001  5.000000e+001
      vertex -1.420162e+001  2.057460e+001  0.000000e+000
    endloop
  endfacet
  facet normal  6.631227e-001 -7.485108e-001  0.000000e+000
    outer loop
      vertex -1.420162e+001  2.057460e+001  0.000000e+000
      vertex -1.420162e+001  2.057460e+001  5.000000e+001
      vertex -1.871277e+001  1.657807e+001  5.000000e+001
    endloop
  endfacet
  facet normal  6.631227e-001 -7.485108e-001  0.000000e+000
    outer loop
      vertex -1.420162e+001  2.057460e+001  0.000000e+000
      vertex -1.871277e+001  1.657807e+001  5.000000e+001
      vertex -1.871277e+001  1.657807e+001  0.000000e+000
    endloop
  endfacet
  facet normal  8.229839e-001 -5.680647e-001  0.000000e+000
    outer loop
      vertex -1.871277e+001  1.657807e+001  0.000000e+000
      vertex -1.871277e+001  1.657807e+001  5.000000e+001
      vertex -2.213640e+001  1.161808e+001  5.000000e+001
    endloop
  endfacet
  facet normal  8.229839e-001 -5.680647e-001  0.000000e+000
    outer loop
      vertex -1.871277e+001  1.657807e+001  0.000000e+000
      vertex -2.213640e+001  1.161808e+001  5.000000e+001
      vertex -2.213640e+001  1.161808e+001  0.000000e+000
    endloop
  endfacet
  facet normal  9.350162e-001 -3.546051e-001  0.000000e+000
    outer loop
      vertex -2.213640e+001  1.161808e+001  0.000000e+000
      vertex -2.213640e+001  1.161808e+001  5.000000e+001
      vertex -2.427355e+001  5.982892e+000  5.000000e+001
    endloop
  endfacet
  facet normal  9.350162e-001 -3.546051e-001  0.000000e+000
    outer loop
      vertex -2.213640e+001  1.161808e+001  0.000000e+000
      vertex -2.427355e+001  5.982892e+000  5.000000e+001
      vertex -2.427355e+001  5.982892e+000  0.000000e+000
    endloop
  endfacet
  facet normal  9.927089e-001 -1.205366e-001  0.000000e+000
    outer loop
      vertex -2.427355e+001  5.982892e+000  0.000000e+000
      vertex -2.427355e+001  5.982892e+000  5.000000e+001
      vertex -2.500000e+001  3.061516e-015  5.000000e+001
    endloop
  endfacet
  facet normal  9.927089e-001 -1.205366e-001  0.000000e+000
    outer loop
      vertex -2.427355e+001  5.982892e+000  0.000000e+000
      vertex -2.500000e+001  3.061516e-015  5.000000e+001
      vertex -2.500000e+001  3.061516e-015  0.000000e+000
    endloop
  endfacet
  facet normal  2.393157e-001 -9.709418e-001  0.000000e+000
    outer loop
      vertex -8.865122e+000  2.337541e+001  5.000000e+001
      vertex -3.013417e+000  2.481772e+001  0.000000e+000
      vertex -3.013417e+000  2.481772e+001  5.000000e+001
    endloop
  endfacet
  facet normal  0.000000e+000 -1.000000e+000  0.000000e+000
    outer loop
      vertex -3.013417e+000  2.481772e+001  5.000000e+001
      vertex -3.013417e+000  2.481772e+001  0.000000e+000
      vertex  3.013417e+000  2.481772e+001  0.000000e+000
    endloop
  endfacet
  facet normal  0.000000e+000 -1.000000e+000  0.000000e+000
    outer loop
      vertex -3.013417e+000  2.481772e+001  5.000000e+001
      vertex  3.013417e+000  2.481772e+001  0.000000e+000
      vertex  3.013417e+000  2.481772e+001  5.000000e+001
    endloop
  endfacet
  facet normal -2.393157e-001 -9.709418e-001  -0.000000e+000
    outer loop
      vertex  3.013417e+000  2.481772e+001  5.000000e+001
      vertex  3.013417e+000  2.481772e+001  0.000000e+000
      vertex  8.865122e+000  2.337541e+001  0.000000e+000
    endloop
  endfacet
  facet normal -2.393157e-001 -9.709418e-001  0.000000e+000
    outer loop
      vertex  3.013417e+000  2.481772e+001  5.000000e+001
      vertex  8.865122e+000  2.337541e+001  0.000000e+000
      vertex  8.865122e+000  2.337541e+001  5.000000e+001
    endloop
  endfacet
  facet normal -4.647233e-001 -8.854560e-001  -0.000000e+000
    outer loop
      vertex  8.865122e+000  2.337541e+001  5.000000e+001
      vertex  8.865122e+000  2.337541e+001  0.000000e+000
      vertex  1.420162e+001  2.057460e+001  0.000000e+000
    endloop
  endfacet
  facet normal -4.647233e-001 -8.854560e-001  0.000000e+000
    outer loop
      vertex  8.865122e+000  2.337541e+001  5.000000e+001
      vertex  1.420162e+001  2.057460e+001  0.000000e+000
      vertex  1.420162e+001  2.057460e+001  5.000000e+001
    endloop
  endfacet
  facet normal -6.631227e-001 -7.485108e-001  -0.000000e+000
    outer loop
      vertex  1.420162e+001  2.057460e+001  5.000000e+001
      vertex  1.420162e+001  2.057460e+001  0.000000e+000
      vertex  1.871277e+001  1.657807e+001  0.000000e+000
    endloop
  endfacet
  facet normal -6.631227e-001 -7.485108e-001  0.000000e+000
    outer loop
      vertex  1.420162e+001  2.057460e+001  5.000000e+001
      vertex  1.871277e+001  1.657807e+001  0.000000e+000
      vertex  1.871277e+001  1.657807e+001  5.000000e+001
    endloop
  endfacet
  facet normal -8.229839e-001 -5.680647e-001  -0.000000e+000
    outer loop
      vertex  1.871277e+001  1.657807e+001  5.000000e+001
      vertex  1.871277e+001  1.657807e+001  0.000000e+000
      vertex  2.213640e+001  1.161808e+001  0.000000e+000
    endloop
  endfacet
  facet normal -8.229839e-001 -5.680647e-001  0.000000e+000
    outer loop
      vertex  1.871277e+001  1.657807e+001  5.000000e+001
      vertex  2.213640e+001  1.161808e+001  0.000000e+000
      vertex  2.213640e+001  1.161808e+001  5.000000e+001
    endloop
  endfacet
  facet normal -9.350162e-001 -3.546051e-001  -0.000000e+000
    outer loop
      vertex  2.213640e+001  1.161808e+001  5.000000e+001
      vertex  2.213640e+001  1.161808e+001  0.000000e+000
      vertex  2.427355e+001  5.982892e+000  0.000000e+000
    endloop
  endfacet
  facet normal -9.350162e-001 -3.546051e-001  0.000000e+000
    outer loop
      vertex  2.213640e+001  1.161808e+001  5.000000e+001
      vertex  2.427355e+001  5.982892e+000  0.000000e+000
      vertex  2.427355e+001  5.982892e+000  5.000000e+001
    endloop
  endfacet
  facet normal -9.927089e-001 -1.205366e-001  -0.000000e+000
    outer loop
      vertex  2.427355e+001  5.982892e+000  5.000000e+001
      vertex  2.427355e+001  5.982892e+000  0.000000e+000
      vertex  2.500000e+001  0.000000e+000  0.000000e+000
    endloop
  endfacet
  facet normal -9.927089e-001 -1.205366e-001  0.000000e+000
    outer loop
      vertex  2.427355e+001  5.982892e+000  5.000000e+001
      vertex  2.500000e+001  0.000000e+000  0.000000e+000
      vertex  2.500000e+001  0.000000e+000  5.000000e+001
    endloop
  endfacet
  facet normal -2.393157e-001  9.709418e-001  0.000000e+000
    outer loop
      vertex  3.013417e+000 -2.481772e+001  0.000000e+000
      vertex  8.865122e+000 -2.337541e+001  5.000000e+001
      vertex  8.865122e+000 -2.337541e+001  0.000000e+000
    endloop
  endfacet
  facet normal -4.647233e-001  8.854560e-001  0.000000e+000
    outer loop
      vertex  8.865122e+000 -2.337541e+001  0.000000e+000
      vertex  8.865122e+000 -2.337541e+001  5.000000e+001
      vertex  1.420162e+001 -2.057460e+001  5.000000e+001
    endloop
  endfacet
  facet normal -4.647233e-001  8.854560e-001  0.000000e+000
    outer loop
      vertex  8.865122e+000 -2.337541e+001  0.000000e+000
      vertex  1.420162e+001 -2.057460e+001  5.000000e+001
      vertex  1.420162e+001 -2.057460e+001  0.000000e+000
    endloop
  endfacet
  facet normal -6.631227e-001  7.485108e-001  0.000000e+000
    outer loop
      vertex  1.420162e+001 -2.057460e+001  0.000000e+000
      vertex  1.420162e+001 -2.057460e+001  5.000000e+001
      vertex  1.871277e+001 -1.657807e+001  5.000000e+001
    endloop
  endfacet
  facet normal -6.631227e-001  7.485108e-001  0.000000e+000
    outer loop
      vertex  1.420162e+001 -2.057460e+001  0.000000e+000
      vertex  1.871277e+001 -1.657807e+001  5.000000e+001
      vertex  1.871277e+001 -1.657807e+001  0.000000e+000
    endloop
  endfacet
  facet normal -8.229839e-001  5.680647e-001  0.000000e+000
    outer loop
      vertex  1.871277e+001 -1.657807e+001  0.000000e+000
      vertex  1.871277e+001 -1.657807e+001  5.000000e+001
      vertex  2.213640e+001 -1.161808e+001  5.000000e+001
    endloop
  endfacet
  facet normal -8.229839e-001  5.680647e-001  0.000000e+000
    outer loop
      vertex  1.871277e+001 -1.657807e+001  0.000000e+000
      vertex  2.213640e+001 -1.161808e+001  5.000000e+001
      vertex  2.213640e+001 -1.161808e+001  0.000000e+000
    endloop
  endfacet
  facet normal -9.350162e-001  3.546051e-001  0.000000e+000
    outer loop
      vertex  2.213640e+001 -1.161808e+001  0.000000e+000
      vertex  2.213640e+001 -1.161808e+001  5.000000e+001
      vertex  2.427355e+001 -5.982892e+000  5.000000e+001
    endloop
  endfacet
  facet normal -9.350162e-001  3.546051e-001  0.000000e+000
    outer loop
      vertex  2.213640e+001 -1.161808e+001  0.000000e+000
      vertex  2.427355e+001 -5.982892e+000  5.000000e+001
      vertex  2.427355e+001 -5.982892e+000  0.000000e+000
    endloop
  endfacet
  facet normal -9.927089e-001  1.205366e-001  0.000000e+000
    outer loop
      vertex  2.427355e+001 -5.982892e+000  0.000000e+000
      vertex  2.427355e+001 -5.982892e+000  5.000000e+001
      vertex  2.500000e+001  0.000000e+000  5.000000e+001
    endloop
  endfacet
  facet normal -9.927089e-001  1.205366e-001  0.000000e+000
    outer loop
      vertex  2.427355e+001 -5.982892e+000  0.000000e+000
      vertex  2.500000e+001  0.000000e+000  5.000000e+001
      vertex  2.500000e+001  0.000000e+000  0.000000e+000
    endloop
  endfacet
  facet normal -2.393157e-001  9.709418e-001  0.000000e+000
    outer loop
      vertex  8.865122e+000 -2.337541e+001  5.000000e+001
      vertex  3.013417e+000 -2.481772e+001  0.000000e+000
      vertex  3.013417e+000 -2.481772e+001  5.000000e+001
    endloop
  endfacet
  facet normal  0.000000e+000  1.000000e+000  0.000000e+000
    outer loop
      vertex  3.013417e+000 -2.481772e+001  5.000000e+001
      vertex  3.013417e+000 -2.481772e+001  0.000000e+000
      vertex -3.013417e+000 -2.481772e+001  0.000000e+000
    endloop
  endfacet
  facet normal  0.000000e+000  1.000000e+000  0.000000e+000
    outer loop
      vertex  3.013417e+000 -2.481772e+001  5.000000e+001
      vertex -3.013417e+000 -2.481772e+001  0.000000e+000
      vertex -3.013417e+000 -2.481772e+001  5.000000e+001
    endloop
  endfacet
  facet normal  2.393157e-001  9.709418e-001  0.000000e+000
    outer loop
      vertex -3.013417e+000 -2.481772e+001  5.000000e+001
      vertex -3.013417e+000 -2.481772e+001  0.000000e+000
      vertex -8.865122e+000 -2.337541e+001  0.000000e+000
    endloop
  endfacet
  facet normal  2.393157e-001  9.709418e-001  -0.000000e+000
    outer loop
      vertex -3.013417e+000 -2.481772e+001  5.000000e+001
      vertex -8.865122e+000 -2.337541e+001  0.000000e+000
      vertex -8.865122e+000 -2.337541e+001  5.000000e+001
    endloop
  endfacet
  facet normal  4.647233e-001  8.854560e-001  0.000000e+000
    outer loop
      vertex -8.865122e+000 -2.337541e+001  5.000000e+001
      vertex -8.865122e+000 -2.337541e+001  0.000000e+000
      vertex -1.420162e+001 -2.057460e+001  0.000000e+000
    endloop
  endfacet
  facet normal  4.647233e-001  8.854560e-001  -0.000000e+000
    outer loop
      vertex -8.865122e+000 -2.337541e+001  5.000000e+001
      vertex -1.420162e+001 -2.057460e+001  0.000000e+000
      vertex -1.420162e+001 -2.057460e+001  5.000000e+001
    endloop
  endfacet
  facet normal  6.631227e-001  7.485108e-001  0.000000e+000
    outer loop
      vertex -1.420162e+001 -2.057460e+001  5.000000e+001
      vertex -1.420162e+001 -2.057460e+001  0.000000e+000
      vertex -1.871277e+001 -1.657807e+001  0.000000e+000
    endloop
  endfacet
  facet normal  6.631227e-001  7.485108e-001  -0.000000e+000
    outer loop
      vertex -1.420162e+001 -2.057460e+001  5.000000e+001
      vertex -1.871277e+001 -1.657807e+001  0.000000e+000
      vertex -1.871277e+001 -1.657807e+001  5.000000e+001
    endloop
  endfacet
  facet normal  8.229839e-001  5.680647e-001  0.000000e+000
    outer loop
      vertex -1.871277e+001 -1.657807e+001  5.000000e+001
      vertex -1.871277e+001 -1.657807e+001  0.000000e+000
      vertex -2.213640e+001 -1.161808e+001  0.000000e+000
    endloop
  endfacet
  facet normal  8.229839e-001  5.680647e-001  -0.000000e+000
    outer loop
      vertex -1.871277e+001 -1.657807e+001  5.000000e+001
      vertex -2.213640e+001 -1.161808e+001  0.000000e+000
      vertex -2.213640e+001 -1.161808e+001  5.000000e+001
    endloop
  endfacet
  facet normal  9.350162e-001  3.546051e-001  0.000000e+000
    outer loop
      vertex -2.213640e+001 -1.161808e+001  5.000000e+001
      vertex -2.213640e+001 -1.161808e+001  0.000000e+000
      vertex -2.427355e+001 -5.982892e+000  0.000000e+000
    endloop
  endfacet
  facet normal  9.350162e-001  3.546051e-001  -0.000000e+000
    outer loop
      vertex -2.213640e+001 -1.161808e+001  5.000000e+001
      vertex -2.427355e+001 -5.982892e+000  0.000000e+000
      vertex -2.427355e+001 -5.982892e+000  5.000000e+001
    endloop
  endfacet
  facet normal  9.927089e-001  1.205366e-001  0.000000e+000
    outer loop
      vertex -2.427355e+001 -5.982892e+000  5.000000e+001
      vertex -2.427355e+001 -5.982892e+000  0.000000e+000
      vertex -2.500000e+001  3.061516e-015  0.000000e+000
    endloop
  endfacet
  facet normal  9.927089e-001  1.205366e-001  -0.000000e+000
    outer loop
      vertex -2.427355e+001 -5.982892e+000  5.000000e+001
      vertex -2.500000e+001  3.061516e-015  0.000000e+000
      vertex -2.500000e+001  3.061516e-015  5.000000e+001
    endloop
  endfacet
  facet normal  0.000000e+000  -0.000000e+000 -1.000000e+000
    outer loop
      vertex  2.213640e+001 -1.161808e+001  0.000000e+000
      vertex  2.427355e+001 -5.982892e+000  0.000000e+000
      vertex  1.492304e+002 -1.517525e+001  0.000000e+000
    endloop
  endfacet
  facet normal  0.000000e+000  0.000000e+000 -1.000000e+000
    outer loop
      vertex  1.492304e+002 -1.517525e+001  0.000000e+000
      vertex  1.871277e+001 -1.657807e+001  0.000000e+000
      vertex  2.213640e+001 -1.161808e+001  0.000000e+000
    endloop
  endfacet
  facet normal  0.000000e+000  0.000000e+000 -1.000000e+000
    outer loop
      vertex  1.500000e+002  0.000000e+000  0.000000e+000
      vertex  1.492304e+002 -1.517525e+001  0.000000e+000
      vertex  2.427355e+001 -5.982892e+000  0.000000e+000
    endloop
  endfacet
  facet normal  0.000000e+000  0.000000e+000 -1.000000e+000
    outer loop
      vertex  1.500000e+002  0.000000e+000  0.000000e+000
      vertex  2.427355e+001 -5.982892e+000  0.000000e+000
      vertex  2.500000e+001  0.000000e+000  0.000000e+000
    endloop
  endfacet
  facet normal  0.000000e+000  0.000000e+000 -1.000000e+000
    outer loop
      vertex  1.500000e+002  0.000000e+000  0.000000e+000
      vertex  2.500000e+001  0.000000e+000  0.000000e+000
      vertex  2.427355e+001  5.982892e+000  0.000000e+000
    endloop
  endfacet
  facet normal  0.000000e+000  0.000000e+000 -1.000000e+000
    outer loop
      vertex  1.500000e+002  0.000000e+000  0.000000e+000
      vertex  2.427355e+001  5.982892e+000  0.000000e+000
      vertex  2.213640e+001  1.161808e+001  0.000000e+000
    endloop
  endfacet
  facet normal  0.000000e+000  0.000000e+000 -9.999999e-001
    outer loop
      vertex  1.500000e+002  0.000000e+000  0.000000e+000
      vertex  2.213640e+001  1.161808e+001  0.000000e+000
      vertex  1.871277e+001  1.657807e+001  0.000000e+000
    endloop
  endfacet
  facet normal  0.000000e+000  0.000000e+000 -1.000000e+000
    outer loop
      vertex  1.500000e+002  0.000000e+000  0.000000e+000
      vertex  1.871277e+001  1.657807e+001  0.000000e+000
      vertex  1.492304e+002  1.517525e+001  0.000000e+000
    endloop
  endfacet
  facet normal  0.000000e+000  -0.000000e+000 -1.000000e+000
    outer loop
      vertex -1.500000e+002  1.836910e-014  0.000000e+000
      vertex -1.492304e+002  1.517525e+001  0.000000e+000
      vertex -1.871277e+001  1.657807e+001  0.000000e+000
    endloop
  endfacet
  facet normal  0.000000e+000  0.000000e+000 -9.999999e-001
    outer loop
      vertex -1.500000e+002  1.836910e-014  0.000000e+000
      vertex -1.871277e+001  1.657807e+001  0.000000e+000
      vertex -2.213640e+001  1.161808e+001  0.000000e+000
    endloop
  endfacet
  facet normal  0.000000e+000  0.000000e+000 -1.000000e+000
    outer loop
      vertex -1.500000e+002  1.836910e-014  0.000000e+000
      vertex -2.213640e+001  1.161808e+001  0.000000e+000
      vertex -2.427355e+001  5.982892e+000  0.000000e+000
    endloop
  endfacet
  facet normal  0.000000e+000  0.000000e+000 -1.000000e+000
    outer loop
      vertex -1.500000e+002  1.836910e-014  0.000000e+000
      vertex -2.427355e+001  5.982892e+000  0.000000e+000
      vertex -2.500000e+001  3.061516e-015  0.000000e+000
    endloop
  endfacet
  facet normal  0.000000e+000  0.000000e+000 -1.000000e+000
    outer loop
      vertex -1.469295e+002 -3.019478e+001  0.000000e+000
      vertex -1.492304e+002 -1.517525e+001  0.000000e+000
      vertex -1.871277e+001 -1.657807e+001  0.000000e+000
    endloop
  endfacet
  facet normal  0.000000e+000  -0.000000e+000 -1.000000e+000
    outer loop
      vertex -1.469295e+002 -3.019478e+001  0.000000e+000
      vertex -1.871277e+001 -1.657807e+001  0.000000e+000
      vertex -1.420162e+001 -2.057460e+001  0.000000e+000
    endloop
  endfacet
  facet normal  0.000000e+000  -0.000000e+000 -1.000000e+000
    outer loop
      vertex -1.469295e+002 -3.019478e+001  0.000000e+000
      vertex -1.420162e+001 -2.057460e+001  0.000000e+000
      vertex -8.865122e+000 -2.337541e+001  0.000000e+000
    endloop
  endfacet
  facet normal  0.000000e+000  -0.000000e+000 -9.999999e-001
    outer loop
      vertex -1.469295e+002 -3.019478e+001  0.000000e+000
      vertex -8.865122e+000 -2.337541e+001  0.000000e+000
      vertex -3.013417e+000 -2.481772e+001  0.000000e+000
    endloop
  endfacet
  facet normal  0.000000e+000  0.000000e+000 -1.000000e+000
    outer loop
      vertex -1.469295e+002 -3.019478e+001  0.000000e+000
      vertex -3.013417e+000 -2.481772e+001  0.000000e+000
      vertex -7.597375e+000 -1.498075e+002  0.000000e+000
    endloop
  endfacet
  facet normal  0.000000e+000  0.000000e+000 -1.000000e+000
    outer loop
      vertex -1.469295e+002 -3.019478e+001  0.000000e+000
      vertex -7.597375e+000 -1.498075e+002  0.000000e+000
      vertex -2.271417e+001 -1.482702e+002  0.000000e+000
    endloop
  endfacet
  facet normal  0.000000e+000  0.000000e+000 -1.000000e+000
    outer loop
      vertex -1.469295e+002 -3.019478e+001  0.000000e+000
      vertex -2.271417e+001 -1.482702e+002  0.000000e+000
      vertex -3.759788e+001 -1.452116e+002  0.000000e+000
    endloop
  endfacet
  facet normal  0.000000e+000  0.000000e+000 -1.000000e+000
    outer loop
      vertex -1.469295e+002 -3.019478e+001  0.000000e+000
      vertex -3.759788e+001 -1.452116e+002  0.000000e+000
      vertex -5.209579e+001 -1.406628e+002  0.000000e+000
    endloop
  endfacet
  facet normal  0.000000e+000  0.000000e+000 -1.000000e+000
    outer loop
      vertex -1.469295e+002 -3.019478e+001  0.000000e+000
      vertex -5.209579e+001 -1.406628e+002  0.000000e+000
      vertex -6.605912e+001 -1.346707e+002  0.000000e+000
    endloop
  endfacet
  facet normal  0.000000e+000  0.000000e+000 -9.999999e-001
    outer loop
      vertex -1.469295e+002 -3.019478e+001  0.000000e+000
      vertex -6.605912e+001 -1.346707e+002  0.000000e+000
      vertex -7.934460e+001 -1.272966e+002  0.000000e+000
    endloop
  endfacet
  facet normal  0.000000e+000  0.000000e+000 -1.000000e+000
    outer loop
      vertex -1.469295e+002 -3.019478e+001  0.000000e+000
      vertex -7.934460e+001 -1.272966e+002  0.000000e+000
      vertex -9.181590e+001 -1.186164e+002  0.000000e+000
    endloop
  endfacet
  facet normal  0.000000e+000  0.000000e+000 -1.000000e+000
    outer loop
      vertex -1.469295e+002 -3.019478e+001  0.000000e+000
      vertex -9.181590e+001 -1.186164e+002  0.000000e+000
      vertex -1.033450e+002 -1.087189e+002  0.000000e+000
    endloop
  endfacet
  facet normal  0.000000e+000  0.000000e+000 -1.000000e+000
    outer loop
      vertex -1.469295e+002 -3.019478e+001  0.000000e+000
      vertex -1.033450e+002 -1.087189e+002  0.000000e+000
      vertex -1.138137e+002 -9.770587e+001  0.000000e+000
    endloop
  endfacet
  facet normal  0.000000e+000  0.000000e+000 -1.000000e+000
    outer loop
      vertex -1.469295e+002 -3.019478e+001  0.000000e+000
      vertex -1.138137e+002 -9.770587e+001  0.000000e+000
      vertex -1.231145e+002 -8.569023e+001  0.000000e+000
    endloop
  endfacet
  facet normal  0.000000e+000  0.000000e+000 -1.000000e+000
    outer loop
      vertex -1.469295e+002 -3.019478e+001  0.000000e+000
      vertex -1.231145e+002 -8.569023e+001  0.000000e+000
      vertex -1.311520e+002 -7.279530e+001  0.000000e+000
    endloop
  endfacet
  facet normal  0.000000e+000  0.000000e+000 -1.000000e+000
    outer loop
      vertex -1.469295e+002 -3.019478e+001  0.000000e+000
      vertex -1.311520e+002 -7.279530e+001  0.000000e+000
      vertex -1.378437e+002 -5.915338e+001  0.000000e+000
    endloop
  endfacet
  facet normal  0.000000e+000  0.000000e+000 -1.000000e+000
    outer loop
      vertex -1.469295e+002 -3.019478e+001  0.000000e+000
      vertex -1.378437e+002 -5.915338e+001  0.000000e+000
      vertex -1.431209e+002 -4.490447e+001  0.000000e+000
    endloop
  endfacet
  facet normal  -0.000000e+000  0.000000e+000 -1.000000e+000
    outer loop
      vertex  3.013417e+000 -2.481772e+001  0.000000e+000
      vertex  1.469295e+002 -3.019478e+001  0.000000e+000
      vertex  1.431209e+002 -4.490447e+001  0.000000e+000
    endloop
  endfacet
  facet normal  -0.000000e+000  0.000000e+000 -1.000000e+000
    outer loop
      vertex  3.013417e+000 -2.481772e+001  0.000000e+000
      vertex  1.431209e+002 -4.490447e+001  0.000000e+000
      vertex  1.378437e+002 -5.915338e+001  0.000000e+000
    endloop
  endfacet
  facet normal  -0.000000e+000  0.000000e+000 -1.000000e+000
    outer loop
      vertex  3.013417e+000 -2.481772e+001  0.000000e+000
      vertex  1.378437e+002 -5.915338e+001  0.000000e+000
      vertex  1.311520e+002 -7.279530e+001  0.000000e+000
    endloop
  endfacet
  facet normal  -0.000000e+000  0.000000e+000 -1.000000e+000
    outer loop
      vertex  3.013417e+000 -2.481772e+001  0.000000e+000
      vertex  1.311520e+002 -7.279530e+001  0.000000e+000
      vertex  1.231145e+002 -8.569023e+001  0.000000e+000
    endloop
  endfacet
  facet normal  -0.000000e+000  0.000000e+000 -9.999999e-001
    outer loop
      vertex  3.013417e+000 -2.481772e+001  0.000000e+000
      vertex  1.231145e+002 -8.569023e+001  0.000000e+000
      vertex  1.138137e+002 -9.770587e+001  0.000000e+000
    endloop
  endfacet
  facet normal  -0.000000e+000  0.000000e+000 -1.000000e+000
    outer loop
      vertex  3.013417e+000 -2.481772e+001  0.000000e+000
      vertex  1.138137e+002 -9.770587e+001  0.000000e+000
      vertex  1.033450e+002 -1.087189e+002  0.000000e+000
    endloop
  endfacet
  facet normal  -0.000000e+000  0.000000e+000 -1.000000e+000
    outer loop
      vertex  3.013417e+000 -2.481772e+001  0.000000e+000
      vertex  1.033450e+002 -1.087189e+002  0.000000e+000
      vertex  9.181590e+001 -1.186164e+002  0.000000e+000
    endloop
  endfacet
  facet normal  -0.000000e+000  0.000000e+000 -1.000000e+000
    outer loop
      vertex  3.013417e+000 -2.481772e+001  0.000000e+000
      vertex  9.181590e+001 -1.186164e+002  0.000000e+000
      vertex  7.934460e+001 -1.272966e+002  0.000000e+000
    endloop
  endfacet
  facet normal  -0.000000e+000  0.000000e+000 -1.000000e+000
    outer loop
      vertex  3.013417e+000 -2.481772e+001  0.000000e+000
      vertex  7.934460e+001 -1.272966e+002  0.000000e+000
      vertex  6.605912e+001 -1.346707e+002  0.000000e+000
    endloop
  endfacet
  facet normal  -0.000000e+000  0.000000e+000 -1.000000e+000
    outer loop
      vertex  3.013417e+000 -2.481772e+001  0.000000e+000
      vertex  6.605912e+001 -1.346707e+002  0.000000e+000
      vertex  5.209579e+001 -1.406628e+002  0.000000e+000
    endloop
  endfacet
  facet normal  -0.000000e+000  0.000000e+000 -9.999999e-001
    outer loop
      vertex  3.013417e+000 -2.481772e+001  0.000000e+000
      vertex  5.209579e+001 -1.406628e+002  0.000000e+000
      vertex  3.759788e+001 -1.452116e+002  0.000000e+000
    endloop
  endfacet
  facet normal  -0.000000e+000  0.000000e+000 -1.000000e+000
    outer loop
      vertex  3.013417e+000 -2.481772e+001  0.000000e+000
      vertex  3.759788e+001 -1.452116e+002  0.000000e+000
      vertex  2.271417e+001 -1.482702e+002  0.000000e+000
    endloop
  endfacet
  facet normal  -0.000000e+000  0.000000e+000 -1.000000e+000
    outer loop
      vertex  3.013417e+000 -2.481772e+001  0.000000e+000
      vertex  2.271417e+001 -1.482702e+002  0.000000e+000
      vertex  7.597375e+000 -1.498075e+002  0.000000e+000
    endloop
  endfacet
  facet normal  0.000000e+000  0.000000e+000 -1.000000e+000
    outer loop
      vertex  3.013417e+000 -2.481772e+001  0.000000e+000
      vertex  7.597375e+000 -1.498075e+002  0.000000e+000
      vertex -7.597375e+000 -1.498075e+002  0.000000e+000
    endloop
  endfacet
  facet normal  0.000000e+000  0.000000e+000 -9.999999e-001
    outer loop
      vertex  3.013417e+000 -2.481772e+001  0.000000e+000
      vertex -7.597375e+000 -1.498075e+002  0.000000e+000
      vertex -3.013417e+000 -2.481772e+001  0.000000e+000
    endloop
  endfacet
  facet normal  0.000000e+000  -0.000000e+000 -1.000000e+000
    outer loop
      vertex -1.469295e+002  3.019478e+001  0.000000e+000
      vertex -1.431209e+002  4.490447e+001  0.000000e+000
      vertex -1.378437e+002  5.915338e+001  0.000000e+000
    endloop
  endfacet
  facet normal  0.000000e+000  -0.000000e+000 -1.000000e+000
    outer loop
      vertex -1.469295e+002  3.019478e+001  0.000000e+000
      vertex -1.378437e+002  5.915338e+001  0.000000e+000
      vertex -1.311520e+002  7.279530e+001  0.000000e+000
    endloop
  endfacet
  facet normal  0.000000e+000  -0.000000e+000 -1.000000e+000
    outer loop
      vertex -1.469295e+002  3.019478e+001  0.000000e+000
      vertex -1.311520e+002  7.279530e+001  0.000000e+000
      vertex -1.231145e+002  8.569023e+001  0.000000e+000
    endloop
  endfacet
  facet normal  0.000000e+000  -0.000000e+000 -1.000000e+000
    outer loop
      vertex -1.469295e+002  3.019478e+001  0.000000e+000
      vertex -1.231145e+002  8.569023e+001  0.000000e+000
      vertex -1.138137e+002  9.770587e+001  0.000000e+000
    endloop
  endfacet
  facet normal  0.000000e+000  -0.000000e+000 -1.000000e+000
    outer loop
      vertex -1.469295e+002  3.019478e+001  0.000000e+000
      vertex -1.138137e+002  9.770587e+001  0.000000e+000
      vertex -1.033450e+002  1.087189e+002  0.000000e+000
    endloop
  endfacet
  facet normal  0.000000e+000  -0.000000e+000 -1.000000e+000
    outer loop
      vertex -1.469295e+002  3.019478e+001  0.000000e+000
      vertex -1.033450e+002  1.087189e+002  0.000000e+000
      vertex -9.181590e+001  1.186164e+002  0.000000e+000
    endloop
  endfacet
  facet normal  0.000000e+000  -0.000000e+000 -1.000000e+000
    outer loop
      vertex -1.469295e+002  3.019478e+001  0.000000e+000
      vertex -9.181590e+001  1.186164e+002  0.000000e+000
      vertex -7.934460e+001  1.272966e+002  0.000000e+000
    endloop
  endfacet
  facet normal  0.000000e+000  -0.000000e+000 -9.999999e-001
    outer loop
      vertex -1.469295e+002  3.019478e+001  0.000000e+000
      vertex -7.934460e+001  1.272966e+002  0.000000e+000
      vertex -6.605912e+001  1.346707e+002  0.000000e+000
    endloop
  endfacet
  facet normal  0.000000e+000  -0.000000e+000 -1.000000e+000
    outer loop
      vertex -1.469295e+002  3.019478e+001  0.000000e+000
      vertex -6.605912e+001  1.346707e+002  0.000000e+000
      vertex -5.209579e+001  1.406628e+002  0.000000e+000
    endloop
  endfacet
  facet normal  0.000000e+000  -0.000000e+000 -1.000000e+000
    outer loop
      vertex -1.469295e+002  3.019478e+001  0.000000e+000
      vertex -5.209579e+001  1.406628e+002  0.000000e+000
      vertex -3.759788e+001  1.452116e+002  0.000000e+000
    endloop
  endfacet
  facet normal  0.000000e+000  -0.000000e+000 -1.000000e+000
    outer loop
      vertex -1.469295e+002  3.019478e+001  0.000000e+000
      vertex -3.759788e+001  1.452116e+002  0.000000e+000
      vertex -2.271417e+001  1.482702e+002  0.000000e+000
    endloop
  endfacet
  facet normal  0.000000e+000  -0.000000e+000 -1.000000e+000
    outer loop
      vertex -1.469295e+002  3.019478e+001  0.000000e+000
      vertex -2.271417e+001  1.482702e+002  0.000000e+000
      vertex -7.597375e+000  1.498075e+002  0.000000e+000
    endloop
  endfacet
  facet normal  0.000000e+000  -0.000000e+000 -1.000000e+000
    outer loop
      vertex -1.469295e+002  3.019478e+001  0.000000e+000
      vertex -7.597375e+000  1.498075e+002  0.000000e+000
      vertex -3.013417e+000  2.481772e+001  0.000000e+000
    endloop
  endfacet
  facet normal  -0.000000e+000  0.000000e+000 -1.000000e+000
    outer loop
      vertex -1.469295e+002  3.019478e+001  0.000000e+000
      vertex -3.013417e+000  2.481772e+001  0.000000e+000
      vertex -1.492304e+002  1.517525e+001  0.000000e+000
    endloop
  endfacet
  facet normal  0.000000e+000  0.000000e+000 -1.000000e+000
    outer loop
      vertex  3.013417e+000  2.481772e+001  0.000000e+000
      vertex -3.013417e+000  2.481772e+001  0.000000e+000
      vertex -7.597375e+000  1.498075e+002  0.000000e+000
    endloop
  endfacet
  facet normal  0.000000e+000  0.000000e+000 -1.000000e+000
    outer loop
      vertex  3.013417e+000  2.481772e+001  0.000000e+000
      vertex -7.597375e+000  1.498075e+002  0.000000e+000
      vertex  7.597375e+000  1.498075e+002  0.000000e+000
    endloop
  endfacet
  facet normal  0.000000e+000  -0.000000e+000 -1.000000e+000
    outer loop
      vertex  3.013417e+000  2.481772e+001  0.000000e+000
      vertex  7.597375e+000  1.498075e+002  0.000000e+000
      vertex  2.271417e+001  1.482702e+002  0.000000e+000
    endloop
  endfacet
  facet normal  0.000000e+000  -0.000000e+000 -1.000000e+000
    outer loop
      vertex  3.013417e+000  2.481772e+001  0.000000e+000
      vertex  2.271417e+001  1.482702e+002  0.000000e+000
      vertex  3.759788e+001  1.452116e+002  0.000000e+000
    endloop
  endfacet
  facet normal  0.000000e+000  -0.000000e+000 -9.999999e-001
    outer loop
      vertex  3.013417e+000  2.481772e+001  0.000000e+000
      vertex  3.759788e+001  1.452116e+002  0.000000e+000
      vertex  5.209579e+001  1.406628e+002  0.000000e+000
    endloop
  endfacet
  facet normal  0.000000e+000  -0.000000e+000 -1.000000e+000
    outer loop
      vertex  3.013417e+000  2.481772e+001  0.000000e+000
      vertex  5.209579e+001  1.406628e+002  0.000000e+000
      vertex  6.605912e+001  1.346707e+002  0.000000e+000
    endloop
  endfacet
  facet normal  0.000000e+000  -0.000000e+000 -1.000000e+000
    outer loop
      vertex  3.013417e+000  2.481772e+001  0.000000e+000
      vertex  6.605912e+001  1.346707e+002  0.000000e+000
      vertex  7.934460e+001  1.272966e+002  0.000000e+000
    endloop
  endfacet
  facet normal  0.000000e+000  -0.000000e+000 -9.999999e-001
    outer loop
      vertex  3.013417e+000  2.481772e+001  0.000000e+000
      vertex  7.934460e+001  1.272966e+002  0.000000e+000
      vertex  9.181590e+001  1.186164e+002  0.000000e+000
    endloop
  endfacet
  facet normal  0.000000e+000  -0.000000e+000 -1.000000e+000
    outer loop
      vertex  3.013417e+000  2.481772e+001  0.000000e+000
      vertex  9.181590e+001  1.186164e+002  0.000000e+000
      vertex  1.033450e+002  1.087189e+002  0.000000e+000
    endloop
  endfacet
  facet normal  0.000000e+000  -0.000000e+000 -1.000000e+000
    outer loop
      vertex  3.013417e+000  2.481772e+001  0.000000e+000
      vertex  1.033450e+002  1.087189e+002  0.000000e+000
      vertex  1.138137e+002  9.770587e+001  0.000000e+000
    endloop
  endfacet
  facet normal  0.000000e+000  -0.000000e+000 -9.999999e-001
    outer loop
      vertex  3.013417e+000  2.481772e+001  0.000000e+000
      vertex  1.138137e+002  9.770587e+001  0.000000e+000
      vertex  1.231145e+002  8.569023e+001  0.000000e+000
    endloop
  endfacet
  facet normal  0.000000e+000  -0.000000e+000 -1.000000e+000
    outer loop
      vertex  3.013417e+000  2.481772e+001  0.000000e+000
      vertex  1.231145e+002  8.569023e+001  0.000000e+000
      vertex  1.311520e+002  7.279530e+001  0.000000e+000
    endloop
  endfacet
  facet normal  0.000000e+000  -0.000000e+000 -1.000000e+000
    outer loop
      vertex  3.013417e+000  2.481772e+001  0.000000e+000
      vertex  1.311520e+002  7.279530e+001  0.000000e+000
      vertex  1.378437e+002  5.915338e+001  0.000000e+000
    endloop
  endfacet
  facet normal  0.000000e+000  -0.000000e+000 -1.000000e+000
    outer loop
      vertex  3.013417e+000  2.481772e+001  0.000000e+000
      vertex  1.378437e+002  5.915338e+001  0.000000e+000
      vertex  1.431209e+002  4.490447e+001  0.000000e+000
    endloop
  endfacet
  facet normal  0.000000e+000  -0.000000e+000 -1.000000e+000
    outer loop
      vertex  3.013417e+000  2.481772e+001  0.000000e+000
      vertex  1.431209e+002  4.490447e+001  0.000000e+000
      vertex  1.469295e+002  3.019478e+001  0.000000e+000
    endloop
  endfacet
  facet normal  0.000000e+000  -0.000000e+000 -1.000000e+000
    outer loop
      vertex  3.013417e+000  2.481772e+001  0.000000e+000
      vertex  1.469295e+002  3.019478e+001  0.000000e+000
      vertex  1.492304e+002  1.517525e+001  0.000000e+000
    endloop
  endfacet
  facet normal  0.000000e+000  0.000000e+000 -1.000000e+000
    outer loop
      vertex -1.492304e+002  1.517525e+001  0.000000e+000
      vertex -3.013417e+000  2.481772e+001  0.000000e+000
      vertex -8.865122e+000  2.337541e+001  0.000000e+000
    endloop
  endfacet
  facet normal  0.000000e+000  0.000000e+000 -1.000000e+000
    outer loop
      vertex -1.492304e+002  1.517525e+001  0.000000e+000
      vertex -8.865122e+000  2.337541e+001  0.000000e+000
      vertex -1.420162e+001  2.057460e+001  0.000000e+000
    endloop
  endfacet
  facet normal  0.000000e+000  0.000000e+000 -1.000000e+000
    outer loop
      vertex -1.492304e+002  1.517525e+001  0.000000e+000
      vertex -1.420162e+001  2.057460e+001  0.000000e+000
      vertex -1.871277e+001  1.657807e+001  0.000000e+000
    endloop
  endfacet
  facet normal  0.000000e+000  0.000000e+000 -1.000000e+000
    outer loop
      vertex -1.492304e+002 -1.517525e+001  0.000000e+000
      vertex -1.500000e+002  1.836910e-014  0.000000e+000
      vertex -2.500000e+001  3.061516e-015  0.000000e+000
    endloop
  endfacet
  facet normal  0.000000e+000  -0.000000e+000 -1.000000e+000
    outer loop
      vertex -1.492304e+002 -1.517525e+001  0.000000e+000
      vertex -2.500000e+001  3.061516e-015  0.000000e+000
      vertex -2.427355e+001 -5.982892e+000  0.000000e+000
    endloop
  endfacet
  facet normal  0.000000e+000  -0.000000e+000 -1.000000e+000
    outer loop
      vertex -1.492304e+002 -1.517525e+001  0.000000e+000
      vertex -2.427355e+001 -5.982892e+000  0.000000e+000
      vertex -2.213640e+001 -1.161808e+001  0.000000e+000
    endloop
  endfacet
  facet normal  0.000000e+000  -0.000000e+000 -1.000000e+000
    outer loop
      vertex -1.492304e+002 -1.517525e+001  0.000000e+000
      vertex -2.213640e+001 -1.161808e+001  0.000000e+000
      vertex -1.871277e+001 -1.657807e+001  0.000000e+000
    endloop
  endfacet
  facet normal  0.000000e+000  0.000000e+000 -1.000000e+000
    outer loop
      vertex  1.492304e+002  1.517525e+001  0.000000e+000
      vertex  1.871277e+001  1.657807e+001  0.000000e+000
      vertex  1.420162e+001  2.057460e+001  0.000000e+000
    endloop
  endfacet
  facet normal  0.000000e+000  0.000000e+000 -1.000000e+000
    outer loop
      vertex  1.492304e+002  1.517525e+001  0.000000e+000
      vertex  1.420162e+001  2.057460e+001  0.000000e+000
      vertex  8.865122e+000  2.337541e+001  0.000000e+000
    endloop
  endfacet
  facet normal  0.000000e+000  0.000000e+000 -1.000000e+000
    outer loop
      vertex  1.492304e+002  1.517525e+001  0.000000e+000
      vertex  8.865122e+000  2.337541e+001  0.000000e+000
      vertex  3.013417e+000  2.481772e+001  0.000000e+000
    endloop
  endfacet
  facet normal  0.000000e+000  0.000000e+000 -1.000000e+000
    outer loop
      vertex  1.469295e+002 -3.019478e+001  0.000000e+000
      vertex  3.013417e+000 -2.481772e+001  0.000000e+000
      vertex  8.865122e+000 -2.337541e+001  0.000000e+000
    endloop
  endfacet
  facet normal  0.000000e+000  0.000000e+000 -1.000000e+000
    outer loop
      vertex  1.469295e+002 -3.019478e+001  0.000000e+000
      vertex  8.865122e+000 -2.337541e+001  0.000000e+000
      vertex  1.420162e+001 -2.057460e+001  0.000000e+000
    endloop
  endfacet
  facet normal  0.000000e+000  0.000000e+000 -1.000000e+000
    outer loop
      vertex  1.469295e+002 -3.019478e+001  0.000000e+000
      vertex  1.420162e+001 -2.057460e+001  0.000000e+000
      vertex  1.871277e+001 -1.657807e+001  0.000000e+000
    endloop
  endfacet
  facet normal  0.000000e+000  0.000000e+000 -1.000000e+000
    outer loop
      vertex  1.469295e+002 -3.019478e+001  0.000000e+000
      vertex  1.871277e+001 -1.657807e+001  0.000000e+000
      vertex  1.492304e+002 -1.517525e+001  0.000000e+000
    endloop
  endfacet
  facet normal  0.000000e+000  0.000000e+000  1.000000e+000
    outer loop
      vertex  1.492304e+002 -1.517525e+001  5.000000e+001
      vertex  2.427355e+001 -5.982892e+000  5.000000e+001
      vertex  2.213640e+001 -1.161808e+001  5.000000e+001
    endloop
  endfacet
  facet normal  0.000000e+000  0.000000e+000  1.000000e+000
    outer loop
      vertex  2.213640e+001 -1.161808e+001  5.000000e+001
      vertex  1.871277e+001 -1.657807e+001  5.000000e+001
      vertex  1.492304e+002 -1.517525e+001  5.000000e+001
    endloop
  endfacet
  facet normal  0.000000e+000  0.000000e+000  1.000000e+000
    outer loop
      vertex  1.500000e+002  0.000000e+000  5.000000e+001
      vertex  1.492304e+002  1.517525e+001  5.000000e+001
      vertex  1.871277e+001  1.657807e+001  5.000000e+001
    endloop
  endfacet
  facet normal  0.000000e+000  0.000000e+000  9.999999e-001
    outer loop
      vertex  1.500000e+002  0.000000e+000  5.000000e+001
      vertex  1.871277e+001  1.657807e+001  5.000000e+001
      vertex  2.213640e+001  1.161808e+001  5.000000e+001
    endloop
  endfacet
  facet normal  0.000000e+000  0.000000e+000  1.000000e+000
    outer loop
      vertex  1.500000e+002  0.000000e+000  5.000000e+001
      vertex  2.213640e+001  1.161808e+001  5.000000e+001
      vertex  2.427355e+001  5.982892e+000  5.000000e+001
    endloop
  endfacet
  facet normal  0.000000e+000  0.000000e+000  1.000000e+000
    outer loop
      vertex  1.500000e+002  0.000000e+000  5.000000e+001
      vertex  2.427355e+001  5.982892e+000  5.000000e+001
      vertex  2.500000e+001  0.000000e+000  5.000000e+001
    endloop
  endfacet
  facet normal  -0.000000e+000  0.000000e+000  1.000000e+000
    outer loop
      vertex  1.500000e+002  0.000000e+000  5.000000e+001
      vertex  2.500000e+001  0.000000e+000  5.000000e+001
      vertex  2.427355e+001 -5.982892e+000  5.000000e+001
    endloop
  endfacet
  facet normal  -0.000000e+000  0.000000e+000  1.000000e+000
    outer loop
      vertex  1.500000e+002  0.000000e+000  5.000000e+001
      vertex  2.427355e+001 -5.982892e+000  5.000000e+001
      vertex  1.492304e+002 -1.517525e+001  5.000000e+001
    endloop
  endfacet
  facet normal  0.000000e+000  -0.000000e+000  1.000000e+000
    outer loop
      vertex -1.500000e+002  1.836910e-014  5.000000e+001
      vertex -2.500000e+001  3.061516e-015  5.000000e+001
      vertex -2.427355e+001  5.982892e+000  5.000000e+001
    endloop
  endfacet
  facet normal  0.000000e+000  -0.000000e+000  1.000000e+000
    outer loop
      vertex -1.500000e+002  1.836910e-014  5.000000e+001
      vertex -2.427355e+001  5.982892e+000  5.000000e+001
      vertex -2.213640e+001  1.161808e+001  5.000000e+001
    endloop
  endfacet
  facet normal  0.000000e+000  -0.000000e+000  9.999999e-001
    outer loop
      vertex -1.500000e+002  1.836910e-014  5.000000e+001
      vertex -2.213640e+001  1.161808e+001  5.000000e+001
      vertex -1.871277e+001  1.657807e+001  5.000000e+001
    endloop
  endfacet
  facet normal  0.000000e+000  0.000000e+000  1.000000e+000
    outer loop
      vertex -1.500000e+002  1.836910e-014  5.000000e+001
      vertex -1.871277e+001  1.657807e+001  5.000000e+001
      vertex -1.492304e+002  1.517525e+001  5.000000e+001
    endloop
  endfacet
  facet normal  -0.000000e+000  -0.000000e+000  1.000000e+000
    outer loop
      vertex -1.469295e+002 -3.019478e+001  5.000000e+001
      vertex -1.431209e+002 -4.490447e+001  5.000000e+001
      vertex -1.378437e+002 -5.915338e+001  5.000000e+001
    endloop
  endfacet
  facet normal  -0.000000e+000  -0.000000e+000  1.000000e+000
    outer loop
      vertex -1.469295e+002 -3.019478e+001  5.000000e+001
      vertex -1.378437e+002 -5.915338e+001  5.000000e+001
      vertex -1.311520e+002 -7.279530e+001  5.000000e+001
    endloop
  endfacet
  facet normal  -0.000000e+000  -0.000000e+000  1.000000e+000
    outer loop
      vertex -1.469295e+002 -3.019478e+001  5.000000e+001
      vertex -1.311520e+002 -7.279530e+001  5.000000e+001
      vertex -1.231145e+002 -8.569023e+001  5.000000e+001
    endloop
  endfacet
  facet normal  -0.000000e+000  -0.000000e+000  1.000000e+000
    outer loop
      vertex -1.469295e+002 -3.019478e+001  5.000000e+001
      vertex -1.231145e+002 -8.569023e+001  5.000000e+001
      vertex -1.138137e+002 -9.770587e+001  5.000000e+001
    endloop
  endfacet
  facet normal  -0.000000e+000  -0.000000e+000  1.000000e+000
    outer loop
      vertex -1.469295e+002 -3.019478e+001  5.000000e+001
      vertex -1.138137e+002 -9.770587e+001  5.000000e+001
      vertex -1.033450e+002 -1.087189e+002  5.000000e+001
    endloop
  endfacet
  facet normal  -0.000000e+000  -0.000000e+000  1.000000e+000
    outer loop
      vertex -1.469295e+002 -3.019478e+001  5.000000e+001
      vertex -1.033450e+002 -1.087189e+002  5.000000e+001
      vertex -9.181590e+001 -1.186164e+002  5.000000e+001
    endloop
  endfacet
  facet normal  -0.000000e+000  -0.000000e+000  1.000000e+000
    outer loop
      vertex -1.469295e+002 -3.019478e+001  5.000000e+001
      vertex -9.181590e+001 -1.186164e+002  5.000000e+001
      vertex -7.934460e+001 -1.272966e+002  5.000000e+001
    endloop
  endfacet
  facet normal  -0.000000e+000  -0.000000e+000  9.999999e-001
    outer loop
      vertex -1.469295e+002 -3.019478e+001  5.000000e+001
      vertex -7.934460e+001 -1.272966e+002  5.000000e+001
      vertex -6.605912e+001 -1.346707e+002  5.000000e+001
    endloop
  endfacet
  facet normal  -0.000000e+000  -0.000000e+000  1.000000e+000
    outer loop
      vertex -1.469295e+002 -3.019478e+001  5.000000e+001
      vertex -6.605912e+001 -1.346707e+002  5.000000e+001
      vertex -5.209579e+001 -1.406628e+002  5.000000e+001
    endloop
  endfacet
  facet normal  -0.000000e+000  -0.000000e+000  1.000000e+000
    outer loop
      vertex -1.469295e+002 -3.019478e+001  5.000000e+001
      vertex -5.209579e+001 -1.406628e+002  5.000000e+001
      vertex -3.759788e+001 -1.452116e+002  5.000000e+001
    endloop
  endfacet
  facet normal  -0.000000e+000  -0.000000e+000  1.000000e+000
    outer loop
      vertex -1.469295e+002 -3.019478e+001  5.000000e+001
      vertex -3.759788e+001 -1.452116e+002  5.000000e+001
      vertex -2.271417e+001 -1.482702e+002  5.000000e+001
    endloop
  endfacet
  facet normal  -0.000000e+000  -0.000000e+000  1.000000e+000
    outer loop
      vertex -1.469295e+002 -3.019478e+001  5.000000e+001
      vertex -2.271417e+001 -1.482702e+002  5.000000e+001
      vertex -7.597375e+000 -1.498075e+002  5.000000e+001
    endloop
  endfacet
  facet normal  0.000000e+000  -0.000000e+000  1.000000e+000
    outer loop
      vertex -1.469295e+002 -3.019478e+001  5.000000e+001
      vertex -7.597375e+000 -1.498075e+002  5.000000e+001
      vertex -3.013417e+000 -2.481772e+001  5.000000e+001
    endloop
  endfacet
  facet normal  0.000000e+000  0.000000e+000  1.000000e+000
    outer loop
      vertex -1.469295e+002 -3.019478e+001  5.000000e+001
      vertex -3.013417e+000 -2.481772e+001  5.000000e+001
      vertex -8.865122e+000 -2.337541e+001  5.000000e+001
    endloop
  endfacet
  facet normal  0.000000e+000  0.000000e+000  1.000000e+000
    outer loop
      vertex -1.469295e+002 -3.019478e+001  5.000000e+001
      vertex -8.865122e+000 -2.337541e+001  5.000000e+001
      vertex -1.420162e+001 -2.057460e+001  5.000000e+001
    endloop
  endfacet
  facet normal  0.000000e+000  0.000000e+000  1.000000e+000
    outer loop
      vertex -1.469295e+002 -3.019478e+001  5.000000e+001
      vertex -1.420162e+001 -2.057460e+001  5.000000e+001
      vertex -1.871277e+001 -1.657807e+001  5.000000e+001
    endloop
  endfacet
  facet normal  0.000000e+000  0.000000e+000  1.000000e+000
    outer loop
      vertex -1.469295e+002 -3.019478e+001  5.000000e+001
      vertex -1.871277e+001 -1.657807e+001  5.000000e+001
      vertex -1.492304e+002 -1.517525e+001  5.000000e+001
    endloop
  endfacet
  facet normal  -0.000000e+000  0.000000e+000  1.000000e+000
    outer loop
      vertex  3.013417e+000 -2.481772e+001  5.000000e+001
      vertex -3.013417e+000 -2.481772e+001  5.000000e+001
      vertex -7.597375e+000 -1.498075e+002  5.000000e+001
    endloop
  endfacet
  facet normal  0.000000e+000  0.000000e+000  1.000000e+000
    outer loop
      vertex  3.013417e+000 -2.481772e+001  5.000000e+001
      vertex -7.597375e+000 -1.498075e+002  5.000000e+001
      vertex  7.597375e+000 -1.498075e+002  5.000000e+001
    endloop
  endfacet
  facet normal  0.000000e+000  -0.000000e+000  1.000000e+000
    outer loop
      vertex  3.013417e+000 -2.481772e+001  5.000000e+001
      vertex  7.597375e+000 -1.498075e+002  5.000000e+001
      vertex  2.271417e+001 -1.482702e+002  5.000000e+001
    endloop
  endfacet
  facet normal  0.000000e+000  -0.000000e+000  1.000000e+000
    outer loop
      vertex  3.013417e+000 -2.481772e+001  5.000000e+001
      vertex  2.271417e+001 -1.482702e+002  5.000000e+001
      vertex  3.759788e+001 -1.452116e+002  5.000000e+001
    endloop
  endfacet
  facet normal  0.000000e+000  -0.000000e+000  9.999999e-001
    outer loop
      vertex  3.013417e+000 -2.481772e+001  5.000000e+001
      vertex  3.759788e+001 -1.452116e+002  5.000000e+001
      vertex  5.209579e+001 -1.406628e+002  5.000000e+001
    endloop
  endfacet
  facet normal  0.000000e+000  -0.000000e+000  1.000000e+000
    outer loop
      vertex  3.013417e+000 -2.481772e+001  5.000000e+001
      vertex  5.209579e+001 -1.406628e+002  5.000000e+001
      vertex  6.605912e+001 -1.346707e+002  5.000000e+001
    endloop
  endfacet
  facet normal  0.000000e+000  -0.000000e+000  1.000000e+000
    outer loop
      vertex  3.013417e+000 -2.481772e+001  5.000000e+001
      vertex  6.605912e+001 -1.346707e+002  5.000000e+001
      vertex  7.934460e+001 -1.272966e+002  5.000000e+001
    endloop
  endfacet
  facet normal  0.000000e+000  -0.000000e+000  9.999999e-001
    outer loop
      vertex  3.013417e+000 -2.481772e+001  5.000000e+001
      vertex  7.934460e+001 -1.272966e+002  5.000000e+001
      vertex  9.181590e+001 -1.186164e+002  5.000000e+001
    endloop
  endfacet
  facet normal  0.000000e+000  -0.000000e+000  1.000000e+000
    outer loop
      vertex  3.013417e+000 -2.481772e+001  5.000000e+001
      vertex  9.181590e+001 -1.186164e+002  5.000000e+001
      vertex  1.033450e+002 -1.087189e+002  5.000000e+001
    endloop
  endfacet
  facet normal  0.000000e+000  -0.000000e+000  1.000000e+000
    outer loop
      vertex  3.013417e+000 -2.481772e+001  5.000000e+001
      vertex  1.033450e+002 -1.087189e+002  5.000000e+001
      vertex  1.138137e+002 -9.770587e+001  5.000000e+001
    endloop
  endfacet
  facet normal  0.000000e+000  -0.000000e+000  9.999999e-001
    outer loop
      vertex  3.013417e+000 -2.481772e+001  5.000000e+001
      vertex  1.138137e+002 -9.770587e+001  5.000000e+001
      vertex  1.231145e+002 -8.569023e+001  5.000000e+001
    endloop
  endfacet
  facet normal  0.000000e+000  -0.000000e+000  1.000000e+000
    outer loop
      vertex  3.013417e+000 -2.481772e+001  5.000000e+001
      vertex  1.231145e+002 -8.569023e+001  5.000000e+001
      vertex  1.311520e+002 -7.279530e+001  5.000000e+001
    endloop
  endfacet
  facet normal  0.000000e+000  -0.000000e+000  1.000000e+000
    outer loop
      vertex  3.013417e+000 -2.481772e+001  5.000000e+001
      vertex  1.311520e+002 -7.279530e+001  5.000000e+001
      vertex  1.378437e+002 -5.915338e+001  5.000000e+001
    endloop
  endfacet
  facet normal  0.000000e+000  -0.000000e+000  1.000000e+000
    outer loop
      vertex  3.013417e+000 -2.481772e+001  5.000000e+001
      vertex  1.378437e+002 -5.915338e+001  5.000000e+001
      vertex  1.431209e+002 -4.490447e+001  5.000000e+001
    endloop
  endfacet
  facet normal  0.000000e+000  -0.000000e+000  1.000000e+000
    outer loop
      vertex  3.013417e+000 -2.481772e+001  5.000000e+001
      vertex  1.431209e+002 -4.490447e+001  5.000000e+001
      vertex  1.469295e+002 -3.019478e+001  5.000000e+001
    endloop
  endfacet
  facet normal  0.000000e+000  0.000000e+000  1.000000e+000
    outer loop
      vertex -1.469295e+002  3.019478e+001  5.000000e+001
      vertex -1.492304e+002  1.517525e+001  5.000000e+001
      vertex -3.013417e+000  2.481772e+001  5.000000e+001
    endloop
  endfacet
  facet normal  0.000000e+000  0.000000e+000  1.000000e+000
    outer loop
      vertex -1.469295e+002  3.019478e+001  5.000000e+001
      vertex -3.013417e+000  2.481772e+001  5.000000e+001
      vertex -7.597375e+000  1.498075e+002  5.000000e+001
    endloop
  endfacet
  facet normal  0.000000e+000  0.000000e+000  1.000000e+000
    outer loop
      vertex -1.469295e+002  3.019478e+001  5.000000e+001
      vertex -7.597375e+000  1.498075e+002  5.000000e+001
      vertex -2.271417e+001  1.482702e+002  5.000000e+001
    endloop
  endfacet
  facet normal  0.000000e+000  0.000000e+000  1.000000e+000
    outer loop
      vertex -1.469295e+002  3.019478e+001  5.000000e+001
      vertex -2.271417e+001  1.482702e+002  5.000000e+001
      vertex -3.759788e+001  1.452116e+002  5.000000e+001
    endloop
  endfacet
  facet normal  0.000000e+000  0.000000e+000  1.000000e+000
    outer loop
      vertex -1.469295e+002  3.019478e+001  5.000000e+001
      vertex -3.759788e+001  1.452116e+002  5.000000e+001
      vertex -5.209579e+001  1.406628e+002  5.000000e+001
    endloop
  endfacet
  facet normal  0.000000e+000  0.000000e+000  1.000000e+000
    outer loop
      vertex -1.469295e+002  3.019478e+001  5.000000e+001
      vertex -5.209579e+001  1.406628e+002  5.000000e+001
      vertex -6.605912e+001  1.346707e+002  5.000000e+001
    endloop
  endfacet
  facet normal  0.000000e+000  0.000000e+000  9.999999e-001
    outer loop
      vertex -1.469295e+002  3.019478e+001  5.000000e+001
      vertex -6.605912e+001  1.346707e+002  5.000000e+001
      vertex -7.934460e+001  1.272966e+002  5.000000e+001
    endloop
  endfacet
  facet normal  0.000000e+000  0.000000e+000  1.000000e+000
    outer loop
      vertex -1.469295e+002  3.019478e+001  5.000000e+001
      vertex -7.934460e+001  1.272966e+002  5.000000e+001
      vertex -9.181590e+001  1.186164e+002  5.000000e+001
    endloop
  endfacet
  facet normal  0.000000e+000  0.000000e+000  1.000000e+000
    outer loop
      vertex -1.469295e+002  3.019478e+001  5.000000e+001
      vertex -9.181590e+001  1.186164e+002  5.000000e+001
      vertex -1.033450e+002  1.087189e+002  5.000000e+001
    endloop
  endfacet
  facet normal  0.000000e+000  0.000000e+000  1.000000e+000
    outer loop
      vertex -1.469295e+002  3.019478e+001  5.000000e+001
      vertex -1.033450e+002  1.087189e+002  5.000000e+001
      vertex -1.138137e+002  9.770587e+001  5.000000e+001
    endloop
  endfacet
  facet normal  0.000000e+000  0.000000e+000  1.000000e+000
    outer loop
      vertex -1.469295e+002  3.019478e+001  5.000000e+001
      vertex -1.138137e+002  9.770587e+001  5.000000e+001
      vertex -1.231145e+002  8.569023e+001  5.000000e+001
    endloop
  endfacet
  facet normal  0.000000e+000  0.000000e+000  1.000000e+000
    outer loop
      vertex -1.469295e+002  3.019478e+001  5.000000e+001
      vertex -1.231145e+002  8.569023e+001  5.000000e+001
      vertex -1.311520e+002  7.279530e+001  5.000000e+001
    endloop
  endfacet
  facet normal  0.000000e+000  0.000000e+000  1.000000e+000
    outer loop
      vertex -1.469295e+002  3.019478e+001  5.000000e+001
      vertex -1.311520e+002  7.279530e+001  5.000000e+001
      vertex -1.378437e+002  5.915338e+001  5.000000e+001
    endloop
  endfacet
  facet normal  0.000000e+000  0.000000e+000  1.000000e+000
    outer loop
      vertex -1.469295e+002  3.019478e+001  5.000000e+001
      vertex -1.378437e+002  5.915338e+001  5.000000e+001
      vertex -1.431209e+002  4.490447e+001  5.000000e+001
    endloop
  endfacet
  facet normal  0.000000e+000  0.000000e+000  1.000000e+000
    outer loop
      vertex  3.013417e+000  2.481772e+001  5.000000e+001
      vertex  1.492304e+002  1.517525e+001  5.000000e+001
      vertex  1.469295e+002  3.019478e+001  5.000000e+001
    endloop
  endfacet
  facet normal  0.000000e+000  0.000000e+000  1.000000e+000
    outer loop
      vertex  3.013417e+000  2.481772e+001  5.000000e+001
      vertex  1.469295e+002  3.019478e+001  5.000000e+001
      vertex  1.431209e+002  4.490447e+001  5.000000e+001
    endloop
  endfacet
  facet normal  0.000000e+000  0.000000e+000  1.000000e+000
    outer loop
      vertex  3.013417e+000  2.481772e+001  5.000000e+001
      vertex  1.431209e+002  4.490447e+001  5.000000e+001
      vertex  1.378437e+002  5.915338e+001  5.000000e+001
    endloop
  endfacet
  facet normal  0.000000e+000  0.000000e+000  1.000000e+000
    outer loop
      vertex  3.013417e+000  2.481772e+001  5.000000e+001
      vertex  1.378437e+002  5.915338e+001  5.000000e+001
      vertex  1.311520e+002  7.279530e+001  5.000000e+001
    endloop
  endfacet
  facet normal  0.000000e+000  0.000000e+000  1.000000e+000
    outer loop
      vertex  3.013417e+000  2.481772e+001  5.000000e+001
      vertex  1.311520e+002  7.279530e+001  5.000000e+001
      vertex  1.231145e+002  8.569023e+001  5.000000e+001
    endloop
  endfacet
  facet normal  0.000000e+000  0.000000e+000  9.999999e-001
    outer loop
      vertex  3.013417e+000  2.481772e+001  5.000000e+001
      vertex  1.231145e+002  8.569023e+001  5.000000e+001
      vertex  1.138137e+002  9.770587e+001  5.000000e+001
    endloop
  endfacet
  facet normal  0.000000e+000  0.000000e+000  1.000000e+000
    outer loop
      vertex  3.013417e+000  2.481772e+001  5.000000e+001
      vertex  1.138137e+002  9.770587e+001  5.000000e+001
      vertex  1.033450e+002  1.087189e+002  5.000000e+001
    endloop
  endfacet
  facet normal  0.000000e+000  0.000000e+000  1.000000e+000
    outer loop
      vertex  3.013417e+000  2.481772e+001  5.000000e+001
      vertex  1.033450e+002  1.087189e+002  5.000000e+001
      vertex  9.181590e+001  1.186164e+002  5.000000e+001
    endloop
  endfacet
  facet normal  0.000000e+000  0.000000e+000  1.000000e+000
    outer loop
      vertex  3.013417e+000  2.481772e+001  5.000000e+001
      vertex  9.181590e+001  1.186164e+002  5.000000e+001
      vertex  7.934460e+001  1.272966e+002  5.000000e+001
    endloop
  endfacet
  facet normal  0.000000e+000  0.000000e+000  1.000000e+000
    outer loop
      vertex  3.013417e+000  2.481772e+001  5.000000e+001
      vertex  7.934460e+001  1.272966e+002  5.000000e+001
      vertex  6.605912e+001  1.346707e+002  5.000000e+001
    endloop
  endfacet
  facet normal  0.000000e+000  0.000000e+000  1.000000e+000
    outer loop
      vertex  3.013417e+000  2.481772e+001  5.000000e+001
      vertex  6.605912e+001  1.346707e+002  5.000000e+001
      vertex  5.209579e+001  1.406628e+002  5.000000e+001
    endloop
  endfacet
  facet normal  0.000000e+000  0.000000e+000  9.999999e-001
    outer loop
      vertex  3.013417e+000  2.481772e+001  5.000000e+001
      vertex  5.209579e+001  1.406628e+002  5.000000e+001
      vertex  3.759788e+001  1.452116e+002  5.000000e+001
    endloop
  endfacet
  facet normal  0.000000e+000  0.000000e+000  1.000000e+000
    outer loop
      vertex  3.013417e+000  2.481772e+001  5.000000e+001
      vertex  3.759788e+001  1.452116e+002  5.000000e+001
      vertex  2.271417e+001  1.482702e+002  5.000000e+001
    endloop
  endfacet
  facet normal  0.000000e+000  0.000000e+000  1.000000e+000
    outer loop
      vertex  3.013417e+000  2.481772e+001  5.000000e+001
      vertex  2.271417e+001  1.482702e+002  5.000000e+001
      vertex  7.597375e+000  1.498075e+002  5.000000e+001
    endloop
  endfacet
  facet normal  0.000000e+000  0.000000e+000  1.000000e+000
    outer loop
      vertex  3.013417e+000  2.481772e+001  5.000000e+001
      vertex  7.597375e+000  1.498075e+002  5.000000e+001
      vertex -7.597375e+000  1.498075e+002  5.000000e+001
    endloop
  endfacet
  facet normal  0.000000e+000  0.000000e+000  9.999999e-001
    outer loop
      vertex  3.013417e+000  2.481772e+001  5.000000e+001
      vertex -7.597375e+000  1.498075e+002  5.000000e+001
      vertex -3.013417e+000  2.481772e+001  5.000000e+001
    endloop
  endfacet
  facet normal  0.000000e+000  -0.000000e+000  1.000000e+000
    outer loop
      vertex -1.492304e+002  1.517525e+001  5.000000e+001
      vertex -1.871277e+001  1.657807e+001  5.000000e+001
      vertex -1.420162e+001  2.057460e+001  5.000000e+001
    endloop
  endfacet
  facet normal  0.000000e+000  -0.000000e+000  1.000000e+000
    outer loop
      vertex -1.492304e+002  1.517525e+001  5.000000e+001
      vertex -1.420162e+001  2.057460e+001  5.000000e+001
      vertex -8.865122e+000  2.337541e+001  5.000000e+001
    endloop
  endfacet
  facet normal  0.000000e+000  -0.000000e+000  1.000000e+000
    outer loop
      vertex -1.492304e+002  1.517525e+001  5.000000e+001
      vertex -8.865122e+000  2.337541e+001  5.000000e+001
      vertex -3.013417e+000  2.481772e+001  5.000000e+001
    endloop
  endfacet
  facet normal  0.000000e+000  0.000000e+000  1.000000e+000
    outer loop
      vertex -1.492304e+002 -1.517525e+001  5.000000e+001
      vertex -1.871277e+001 -1.657807e+001  5.000000e+001
      vertex -2.213640e+001 -1.161808e+001  5.000000e+001
    endloop
  endfacet
  facet normal  0.000000e+000  0.000000e+000  1.000000e+000
    outer loop
      vertex -1.492304e+002 -1.517525e+001  5.000000e+001
      vertex -2.213640e+001 -1.161808e+001  5.000000e+001
      vertex -2.427355e+001 -5.982892e+000  5.000000e+001
    endloop
  endfacet
  facet normal  0.000000e+000  0.000000e+000  1.000000e+000
    outer loop
      vertex -1.492304e+002 -1.517525e+001  5.000000e+001
      vertex -2.427355e+001 -5.982892e+000  5.000000e+001
      vertex -2.500000e+001  3.061516e-015  5.000000e+001
    endloop
  endfacet
  facet normal  0.000000e+000  0.000000e+000  1.000000e+000
    outer loop
      vertex -1.492304e+002 -1.517525e+001  5.000000e+001
      vertex -2.500000e+001  3.061516e-015  5.000000e+001
      vertex -1.500000e+002  1.836910e-014  5.000000e+001
    endloop
  endfacet
  facet normal  0.000000e+000  0.000000e+000  1.000000e+000
    outer loop
      vertex  1.492304e+002  1.517525e+001  5.000000e+001
      vertex  3.013417e+000  2.481772e+001  5.000000e+001
      vertex  8.865122e+000  2.337541e+001  5.000000e+001
    endloop
  endfacet
  facet normal  0.000000e+000  0.000000e+000  1.000000e+000
    outer loop
      vertex  1.492304e+002  1.517525e+001  5.000000e+001
      vertex  8.865122e+000  2.337541e+001  5.000000e+001
      vertex  1.420162e+001  2.057460e+001  5.000000e+001
    endloop
  endfacet
  facet normal  0.000000e+000  0.000000e+000  1.000000e+000
    outer loop
      vertex  1.492304e+002  1.517525e+001  5.000000e+001
      vertex  1.420162e+001  2.057460e+001  5.000000e+001
      vertex  1.871277e+001  1.657807e+001  5.000000e+001
    endloop
  endfacet
  facet normal  0.000000e+000  0.000000e+000  1.000000e+000
    outer loop
      vertex  1.469295e+002 -3.019478e+001  5.000000e+001
      vertex  1.492304e+002 -1.517525e+001  5.000000e+001
      vertex  1.871277e+001 -1.657807e+001  5.000000e+001
    endloop
  endfacet
  facet normal  0.000000e+000  0.000000e+000  1.000000e+000
    outer loop
      vertex  1.469295e+002 -3.019478e+001  5.000000e+001
      vertex  1.871277e+001 -1.657807e+001  5.000000e+001
      vertex  1.420162e+001 -2.057460e+001  5.000000e+001
    endloop
  endfacet
  facet normal  0.000000e+000  0.000000e+000  1.000000e+000
    outer loop
      vertex  1.469295e+002 -3.019478e+001  5.000000e+001
      vertex  1.420162e+001 -2.057460e+001  5.000000e+001
      vertex  8.865122e+000 -2.337541e+001  5.000000e+001
    endloop
  endfacet
  facet normal  0.000000e+000  0.000000e+000  9.999999e-001
    outer loop
      vertex  1.469295e+002 -3.019478e+001  5.000000e+001
      vertex  8.865122e+000 -2.337541e+001  5.000000e+001
      vertex  3.013417e+000 -2.481772e+001  5.000000e+001
    endloop
  endfacet
  facet normal  9.987165e-001 -5.064956e-002  0.000000e+000
    outer loop
      vertex  1.500000e+002  0.000000e+000  0.000000e+000
      vertex  1.500000e+002  0.000000e+000  5.000000e+001
      vertex  1.492304e+002 -1.517525e+001  0.000000e+000
    endloop
  endfacet
  facet normal  9.987165e-001 -5.064956e-002  0.000000e+000
    outer loop
      vertex  1.492304e+002 -1.517525e+001  0.000000e+000
      vertex  1.500000e+002  0.000000e+000  5.000000e+001
      vertex  1.492304e+002 -1.517525e+001  5.000000e+001
    endloop
  endfacet
  facet normal  9.884683e-001 -1.514275e-001  0.000000e+000
    outer loop
      vertex  1.492304e+002 -1.517525e+001  0.000000e+000
      vertex  1.492304e+002 -1.517525e+001  5.000000e+001
      vertex  1.469295e+002 -3.019478e+001  0.000000e+000
    endloop
  endfacet
  facet normal  9.884683e-001 -1.514275e-001  0.000000e+000
    outer loop
      vertex  1.469295e+002 -3.019478e+001  0.000000e+000
      vertex  1.492304e+002 -1.517525e+001  5.000000e+001
      vertex  1.469295e+002 -3.019478e+001  5.000000e+001
    endloop
  endfacet
  facet normal  9.680772e-001 -2.506520e-001  0.000000e+000
    outer loop
      vertex  1.469295e+002 -3.019478e+001  0.000000e+000
      vertex  1.469295e+002 -3.019478e+001  5.000000e+001
      vertex  1.431209e+002 -4.490447e+001  0.000000e+000
    endloop
  endfacet
  facet normal  9.680772e-001 -2.506520e-001  0.000000e+000
    outer loop
      vertex  1.431209e+002 -4.490447e+001  0.000000e+000
      vertex  1.469295e+002 -3.019478e+001  5.000000e+001
      vertex  1.431209e+002 -4.490447e+001  5.000000e+001
    endloop
  endfacet
  facet normal  9.377521e-001 -3.473056e-001  0.000000e+000
    outer loop
      vertex  1.431209e+002 -4.490447e+001  0.000000e+000
      vertex  1.431209e+002 -4.490447e+001  5.000000e+001
      vertex  1.378437e+002 -5.915338e+001  0.000000e+000
    endloop
  endfacet
  facet normal  9.377521e-001 -3.473056e-001  0.000000e+000
    outer loop
      vertex  1.378437e+002 -5.915338e+001  0.000000e+000
      vertex  1.431209e+002 -4.490447e+001  5.000000e+001
      vertex  1.378437e+002 -5.915338e+001  5.000000e+001
    endloop
  endfacet
  facet normal  8.978045e-001 -4.403942e-001  0.000000e+000
    outer loop
      vertex  1.378437e+002 -5.915338e+001  0.000000e+000
      vertex  1.378437e+002 -5.915338e+001  5.000000e+001
      vertex  1.311520e+002 -7.279530e+001  0.000000e+000
    endloop
  endfacet
  facet normal  8.978045e-001 -4.403942e-001  0.000000e+000
    outer loop
      vertex  1.311520e+002 -7.279530e+001  0.000000e+000
      vertex  1.378437e+002 -5.915338e+001  5.000000e+001
      vertex  1.311520e+002 -7.279530e+001  5.000000e+001
    endloop
  endfacet
  facet normal  8.486442e-001 -5.289640e-001  0.000000e+000
    outer loop
      vertex  1.311520e+002 -7.279530e+001  0.000000e+000
      vertex  1.311520e+002 -7.279530e+001  5.000000e+001
      vertex  1.231145e+002 -8.569023e+001  0.000000e+000
    endloop
  endfacet
  facet normal  8.486442e-001 -5.289640e-001  0.000000e+000
    outer loop
      vertex  1.231145e+002 -8.569023e+001  0.000000e+000
      vertex  1.311520e+002 -7.279530e+001  5.000000e+001
      vertex  1.231145e+002 -8.569023e+001  5.000000e+001
    endloop
  endfacet
  facet normal  7.907758e-001 -6.121060e-001  0.000000e+000
    outer loop
      vertex  1.231145e+002 -8.569023e+001  0.000000e+000
      vertex  1.231145e+002 -8.569023e+001  5.000000e+001
      vertex  1.138137e+002 -9.770587e+001  0.000000e+000
    endloop
  endfacet
  facet normal  7.907758e-001 -6.121060e-001  0.000000e+000
    outer loop
      vertex  1.138137e+002 -9.770587e+001  0.000000e+000
      vertex  1.231145e+002 -8.569023e+001  5.000000e+001
      vertex  1.138137e+002 -9.770587e+001  5.000000e+001
    endloop
  endfacet
  facet normal  7.247928e-001 -6.889669e-001  0.000000e+000
    outer loop
      vertex  1.138137e+002 -9.770587e+001  0.000000e+000
      vertex  1.138137e+002 -9.770587e+001  5.000000e+001
      vertex  1.033450e+002 -1.087189e+002  0.000000e+000
    endloop
  endfacet
  facet normal  7.247928e-001 -6.889669e-001  0.000000e+000
    outer loop
      vertex  1.033450e+002 -1.087189e+002  0.000000e+000
      vertex  1.138137e+002 -9.770587e+001  5.000000e+001
      vertex  1.033450e+002 -1.087189e+002  5.000000e+001
    endloop
  endfacet
  facet normal  6.513724e-001 -7.587581e-001  0.000000e+000
    outer loop
      vertex  1.033450e+002 -1.087189e+002  0.000000e+000
      vertex  1.033450e+002 -1.087189e+002  5.000000e+001
      vertex  9.181590e+001 -1.186164e+002  0.000000e+000
    endloop
  endfacet
  facet normal  6.513724e-001 -7.587581e-001  0.000000e+000
    outer loop
      vertex  9.181590e+001 -1.186164e+002  0.000000e+000
      vertex  1.033450e+002 -1.087189e+002  5.000000e+001
      vertex  9.181590e+001 -1.186164e+002  5.000000e+001
    endloop
  endfacet
  facet normal  5.712683e-001 -8.207634e-001  0.000000e+000
    outer loop
      vertex  9.181590e+001 -1.186164e+002  0.000000e+000
      vertex  9.181590e+001 -1.186164e+002  5.000000e+001
      vertex  7.934460e+001 -1.272966e+002  0.000000e+000
    endloop
  endfacet
  facet normal  5.712683e-001 -8.207634e-001  0.000000e+000
    outer loop
      vertex  7.934460e+001 -1.272966e+002  0.000000e+000
      vertex  9.181590e+001 -1.186164e+002  5.000000e+001
      vertex  7.934460e+001 -1.272966e+002  5.000000e+001
    endloop
  endfacet
  facet normal  4.853020e-001 -8.743466e-001  0.000000e+000
    outer loop
      vertex  7.934460e+001 -1.272966e+002  0.000000e+000
      vertex  7.934460e+001 -1.272966e+002  5.000000e+001
      vertex  6.605912e+001 -1.346707e+002  0.000000e+000
    endloop
  endfacet
  facet normal  4.853020e-001 -8.743466e-001  0.000000e+000
    outer loop
      vertex  6.605912e+001 -1.346707e+002  0.000000e+000
      vertex  7.934460e+001 -1.272966e+002  5.000000e+001
      vertex  6.605912e+001 -1.346707e+002  5.000000e+001
    endloop
  endfacet
  facet normal  3.943561e-001 -9.189577e-001  0.000000e+000
    outer loop
      vertex  6.605912e+001 -1.346707e+002  0.000000e+000
      vertex  6.605912e+001 -1.346707e+002  5.000000e+001
      vertex  5.209579e+001 -1.406628e+002  0.000000e+000
    endloop
  endfacet
  facet normal  3.943561e-001 -9.189577e-001  0.000000e+000
    outer loop
      vertex  5.209579e+001 -1.406628e+002  0.000000e+000
      vertex  6.605912e+001 -1.346707e+002  5.000000e+001
      vertex  5.209579e+001 -1.406628e+002  5.000000e+001
    endloop
  endfacet
  facet normal  2.993625e-001 -9.541395e-001  0.000000e+000
    outer loop
      vertex  5.209579e+001 -1.406628e+002  0.000000e+000
      vertex  5.209579e+001 -1.406628e+002  5.000000e+001
      vertex  3.759788e+001 -1.452116e+002  0.000000e+000
    endloop
  endfacet
  facet normal  2.993625e-001 -9.541395e-001  0.000000e+000
    outer loop
      vertex  3.759788e+001 -1.452116e+002  0.000000e+000
      vertex  5.209579e+001 -1.406628e+002  5.000000e+001
      vertex  3.759788e+001 -1.452116e+002  5.000000e+001
    endloop
  endfacet
  facet normal  2.012988e-001 -9.795299e-001  0.000000e+000
    outer loop
      vertex  3.759788e+001 -1.452116e+002  0.000000e+000
      vertex  3.759788e+001 -1.452116e+002  5.000000e+001
      vertex  2.271417e+001 -1.482702e+002  0.000000e+000
    endloop
  endfacet
  facet normal  2.012988e-001 -9.795299e-001  0.000000e+000
    outer loop
      vertex  2.271417e+001 -1.482702e+002  0.000000e+000
      vertex  3.759788e+001 -1.452116e+002  5.000000e+001
      vertex  2.271417e+001 -1.482702e+002  5.000000e+001
    endloop
  endfacet
  facet normal  1.011686e-001 -9.948693e-001  0.000000e+000
    outer loop
      vertex  2.271417e+001 -1.482702e+002  0.000000e+000
      vertex  2.271417e+001 -1.482702e+002  5.000000e+001
      vertex  7.597375e+000 -1.498075e+002  0.000000e+000
    endloop
  endfacet
  facet normal  1.011686e-001 -9.948693e-001  0.000000e+000
    outer loop
      vertex  7.597375e+000 -1.498075e+002  0.000000e+000
      vertex  2.271417e+001 -1.482702e+002  5.000000e+001
      vertex  7.597375e+000 -1.498075e+002  5.000000e+001
    endloop
  endfacet
  facet normal  0.000000e+000 -1.000000e+000  -0.000000e+000
    outer loop
      vertex  7.597375e+000 -1.498075e+002  0.000000e+000
      vertex  7.597375e+000 -1.498075e+002  5.000000e+001
      vertex -7.597375e+000 -1.498075e+002  0.000000e+000
    endloop
  endfacet
  facet normal  0.000000e+000 -1.000000e+000  0.000000e+000
    outer loop
      vertex -7.597375e+000 -1.498075e+002  0.000000e+000
      vertex  7.597375e+000 -1.498075e+002  5.000000e+001
      vertex -7.597375e+000 -1.498075e+002  5.000000e+001
    endloop
  endfacet
  facet normal -1.011686e-001 -9.948693e-001  -0.000000e+000
    outer loop
      vertex -7.597375e+000 -1.498075e+002  0.000000e+000
      vertex -7.597375e+000 -1.498075e+002  5.000000e+001
      vertex -2.271417e+001 -1.482702e+002  0.000000e+000
    endloop
  endfacet
  facet normal -1.011686e-001 -9.948693e-001  0.000000e+000
    outer loop
      vertex -2.271417e+001 -1.482702e+002  0.000000e+000
      vertex -7.597375e+000 -1.498075e+002  5.000000e+001
      vertex -2.271417e+001 -1.482702e+002  5.000000e+001
    endloop
  endfacet
  facet normal -2.012988e-001 -9.795299e-001  -0.000000e+000
    outer loop
      vertex -2.271417e+001 -1.482702e+002  0.000000e+000
      vertex -2.271417e+001 -1.482702e+002  5.000000e+001
      vertex -3.759788e+001 -1.452116e+002  0.000000e+000
    endloop
  endfacet
  facet normal -2.012988e-001 -9.795299e-001  0.000000e+000
    outer loop
      vertex -3.759788e+001 -1.452116e+002  0.000000e+000
      vertex -2.271417e+001 -1.482702e+002  5.000000e+001
      vertex -3.759788e+001 -1.452116e+002  5.000000e+001
    endloop
  endfacet
  facet normal -2.993625e-001 -9.541395e-001  -0.000000e+000
    outer loop
      vertex -3.759788e+001 -1.452116e+002  0.000000e+000
      vertex -3.759788e+001 -1.452116e+002  5.000000e+001
      vertex -5.209579e+001 -1.406628e+002  0.000000e+000
    endloop
  endfacet
  facet normal -2.993625e-001 -9.541395e-001  0.000000e+000
    outer loop
      vertex -5.209579e+001 -1.406628e+002  0.000000e+000
      vertex -3.759788e+001 -1.452116e+002  5.000000e+001
      vertex -5.209579e+001 -1.406628e+002  5.000000e+001
    endloop
  endfacet
  facet normal -3.943561e-001 -9.189577e-001  -0.000000e+000
    outer loop
      vertex -5.209579e+001 -1.406628e+002  0.000000e+000
      vertex -5.209579e+001 -1.406628e+002  5.000000e+001
      vertex -6.605912e+001 -1.346707e+002  0.000000e+000
    endloop
  endfacet
  facet normal -3.943561e-001 -9.189577e-001  0.000000e+000
    outer loop
      vertex -6.605912e+001 -1.346707e+002  0.000000e+000
      vertex -5.209579e+001 -1.406628e+002  5.000000e+001
      vertex -6.605912e+001 -1.346707e+002  5.000000e+001
    endloop
  endfacet
  facet normal -4.853020e-001 -8.743466e-001  -0.000000e+000
    outer loop
      vertex -6.605912e+001 -1.346707e+002  0.000000e+000
      vertex -6.605912e+001 -1.346707e+002  5.000000e+001
      vertex -7.934460e+001 -1.272966e+002  0.000000e+000
    endloop
  endfacet
  facet normal -4.853020e-001 -8.743466e-001  0.000000e+000
    outer loop
      vertex -7.934460e+001 -1.272966e+002  0.000000e+000
      vertex -6.605912e+001 -1.346707e+002  5.000000e+001
      vertex -7.934460e+001 -1.272966e+002  5.000000e+001
    endloop
  endfacet
  facet normal -5.712683e-001 -8.207634e-001  -0.000000e+000
    outer loop
      vertex -7.934460e+001 -1.272966e+002  0.000000e+000
      vertex -7.934460e+001 -1.272966e+002  5.000000e+001
      vertex -9.181590e+001 -1.186164e+002  0.000000e+000
    endloop
  endfacet
  facet normal -5.712683e-001 -8.207634e-001  0.000000e+000
    outer loop
      vertex -9.181590e+001 -1.186164e+002  0.000000e+000
      vertex -7.934460e+001 -1.272966e+002  5.000000e+001
      vertex -9.181590e+001 -1.186164e+002  5.000000e+001
    endloop
  endfacet
  facet normal -6.513724e-001 -7.587581e-001  -0.000000e+000
    outer loop
      vertex -9.181590e+001 -1.186164e+002  0.000000e+000
      vertex -9.181590e+001 -1.186164e+002  5.000000e+001
      vertex -1.033450e+002 -1.087189e+002  0.000000e+000
    endloop
  endfacet
  facet normal -6.513724e-001 -7.587581e-001  0.000000e+000
    outer loop
      vertex -1.033450e+002 -1.087189e+002  0.000000e+000
      vertex -9.181590e+001 -1.186164e+002  5.000000e+001
      vertex -1.033450e+002 -1.087189e+002  5.000000e+001
    endloop
  endfacet
  facet normal -7.247928e-001 -6.889669e-001  -0.000000e+000
    outer loop
      vertex -1.033450e+002 -1.087189e+002  0.000000e+000
      vertex -1.033450e+002 -1.087189e+002  5.000000e+001
      vertex -1.138137e+002 -9.770587e+001  0.000000e+000
    endloop
  endfacet
  facet normal -7.247928e-001 -6.889669e-001  0.000000e+000
    outer loop
      vertex -1.138137e+002 -9.770587e+001  0.000000e+000
      vertex -1.033450e+002 -1.087189e+002  5.000000e+001
      vertex -1.138137e+002 -9.770587e+001  5.000000e+001
    endloop
  endfacet
  facet normal -7.907758e-001 -6.121060e-001  -0.000000e+000
    outer loop
      vertex -1.138137e+002 -9.770587e+001  0.000000e+000
      vertex -1.138137e+002 -9.770587e+001  5.000000e+001
      vertex -1.231145e+002 -8.569023e+001  0.000000e+000
    endloop
  endfacet
  facet normal -7.907758e-001 -6.121060e-001  0.000000e+000
    outer loop
      vertex -1.231145e+002 -8.569023e+001  0.000000e+000
      vertex -1.138137e+002 -9.770587e+001  5.000000e+001
      vertex -1.231145e+002 -8.569023e+001  5.000000e+001
    endloop
  endfacet
  facet normal -8.486442e-001 -5.289640e-001  -0.000000e+000
    outer loop
      vertex -1.231145e+002 -8.569023e+001  0.000000e+000
      vertex -1.231145e+002 -8.569023e+001  5.000000e+001
      vertex -1.311520e+002 -7.279530e+001  0.000000e+000
    endloop
  endfacet
  facet normal -8.486442e-001 -5.289640e-001  0.000000e+000
    outer loop
      vertex -1.311520e+002 -7.279530e+001  0.000000e+000
      vertex -1.231145e+002 -8.569023e+001  5.000000e+001
      vertex -1.311520e+002 -7.279530e+001  5.000000e+001
    endloop
  endfacet
  facet normal -8.978045e-001 -4.403942e-001  -0.000000e+000
    outer loop
      vertex -1.311520e+002 -7.279530e+001  0.000000e+000
      vertex -1.311520e+002 -7.279530e+001  5.000000e+001
      vertex -1.378437e+002 -5.915338e+001  0.000000e+000
    endloop
  endfacet
  facet normal -8.978045e-001 -4.403942e-001  0.000000e+000
    outer loop
      vertex -1.378437e+002 -5.915338e+001  0.000000e+000
      vertex -1.311520e+002 -7.279530e+001  5.000000e+001
      vertex -1.378437e+002 -5.915338e+001  5.000000e+001
    endloop
  endfacet
  facet normal -9.377521e-001 -3.473056e-001  -0.000000e+000
    outer loop
      vertex -1.378437e+002 -5.915338e+001  0.000000e+000
      vertex -1.378437e+002 -5.915338e+001  5.000000e+001
      vertex -1.431209e+002 -4.490447e+001  0.000000e+000
    endloop
  endfacet
  facet normal -9.377521e-001 -3.473056e-001  0.000000e+000
    outer loop
      vertex -1.431209e+002 -4.490447e+001  0.000000e+000
      vertex -1.378437e+002 -5.915338e+001  5.000000e+001
      vertex -1.431209e+002 -4.490447e+001  5.000000e+001
    endloop
  endfacet
  facet normal -9.680772e-001 -2.506520e-001  -0.000000e+000
    outer loop
      vertex -1.431209e+002 -4.490447e+001  0.000000e+000
      vertex -1.431209e+002 -4.490447e+001  5.000000e+001
      vertex -1.469295e+002 -3.019478e+001  0.000000e+000
    endloop
  endfacet
  facet normal -9.680772e-001 -2.506520e-001  0.000000e+000
    outer loop
      vertex -1.469295e+002 -3.019478e+001  0.000000e+000
      vertex -1.431209e+002 -4.490447e+001  5.000000e+001
      vertex -1.469295e+002 -3.019478e+001  5.000000e+001
    endloop
  endfacet
  facet normal -9.884683e-001 -1.514275e-001  -0.000000e+000
    outer loop
      vertex -1.469295e+002 -3.019478e+001  0.000000e+000
      vertex -1.469295e+002 -3.019478e+001  5.000000e+001
      vertex -1.492304e+002 -1.517525e+001  0.000000e+000
    endloop
  endfacet
  facet normal -9.884683e-001 -1.514275e-001  0.000000e+000
    outer loop
      vertex -1.492304e+002 -1.517525e+001  0.000000e+000
      vertex -1.469295e+002 -3.019478e+001  5.000000e+001
      vertex -1.492304e+002 -1.517525e+001  5.000000e+001
    endloop
  endfacet
  facet normal -9.987165e-001 -5.064956e-002  -0.000000e+000
    outer loop
      vertex -1.492304e+002 -1.517525e+001  0.000000e+000
      vertex -1.492304e+002 -1.517525e+001  5.000000e+001
      vertex -1.500000e+002  1.836910e-014  0.000000e+000
    endloop
  endfacet
  facet normal -9.987165e-001 -5.064956e-002  0.000000e+000
    outer loop
      vertex -1.500000e+002  1.836910e-014  0.000000e+000
      vertex -1.492304e+002 -1.517525e+001  5.000000e+001
      vertex -1.500000e+002  1.836910e-014  5.000000e+001
    endloop
  endfacet
  facet normal -9.987165e-001  5.064956e-002  0.000000e+000
    outer loop
      vertex -1.500000e+002  1.836910e-014  0.000000e+000
      vertex -1.500000e+002  1.836910e-014  5.000000e+001
      vertex -1.492304e+002  1.517525e+001  0.000000e+000
    endloop
  endfacet
  facet normal -9.987165e-001  5.064956e-002  0.000000e+000
    outer loop
      vertex -1.492304e+002  1.517525e+001  0.000000e+000
      vertex -1.500000e+002  1.836910e-014  5.000000e+001
      vertex -1.492304e+002  1.517525e+001  5.000000e+001
    endloop
  endfacet
  facet normal -9.884683e-001  1.514275e-001  0.000000e+000
    outer loop
      vertex -1.492304e+002  1.517525e+001  0.000000e+000
      vertex -1.492304e+002  1.517525e+001  5.000000e+001
      vertex -1.469295e+002  3.019478e+001  0.000000e+000
    endloop
  endfacet
  facet normal -9.884683e-001  1.514275e-001  0.000000e+000
    outer loop
      vertex -1.469295e+002  3.019478e+001  0.000000e+000
      vertex -1.492304e+002  1.517525e+001  5.000000e+001
      vertex -1.469295e+002  3.019478e+001  5.000000e+001
    endloop
  endfacet
  facet normal -9.680772e-001  2.506520e-001  0.000000e+000
    outer loop
      vertex -1.469295e+002  3.019478e+001  0.000000e+000
      vertex -1.469295e+002  3.019478e+001  5.000000e+001
      vertex -1.431209e+002  4.490447e+001  0.000000e+000
    endloop
  endfacet
  facet normal -9.680772e-001  2.506520e-001  0.000000e+000
    outer loop
      vertex -1.431209e+002  4.490447e+001  0.000000e+000
      vertex -1.469295e+002  3.019478e+001  5.000000e+001
      vertex -1.431209e+002  4.490447e+001  5.000000e+001
    endloop
  endfacet
  facet normal -9.377521e-001  3.473056e-001  0.000000e+000
    outer loop
      vertex -1.431209e+002  4.490447e+001  0.000000e+000
      vertex -1.431209e+002  4.490447e+001  5.000000e+001
      vertex -1.378437e+002  5.915338e+001  0.000000e+000
    endloop
  endfacet
  facet normal -9.377521e-001  3.473056e-001  0.000000e+000
    outer loop
      vertex -1.378437e+002  5.915338e+001  0.000000e+000
      vertex -1.431209e+002  4.490447e+001  5.000000e+001
      vertex -1.378437e+002  5.915338e+001  5.000000e+001
    endloop
  endfacet
  facet normal -8.978045e-001  4.403942e-001  0.000000e+000
    outer loop
      vertex -1.378437e+002  5.915338e+001  0.000000e+000
      vertex -1.378437e+002  5.915338e+001  5.000000e+001
      vertex -1.311520e+002  7.279530e+001  0.000000e+000
    endloop
  endfacet
  facet normal -8.978045e-001  4.403942e-001  0.000000e+000
    outer loop
      vertex -1.311520e+002  7.279530e+001  0.000000e+000
      vertex -1.378437e+002  5.915338e+001  5.000000e+001
      vertex -1.311520e+002  7.279530e+001  5.000000e+001
    endloop
  endfacet
  facet normal -8.486442e-001  5.289640e-001  0.000000e+000
    outer loop
      vertex -1.311520e+002  7.279530e+001  0.000000e+000
      vertex -1.311520e+002  7.279530e+001  5.000000e+001
      vertex -1.231145e+002  8.569023e+001  0.000000e+000
    endloop
  endfacet
  facet normal -8.486442e-001  5.289640e-001  0.000000e+000
    outer loop
      vertex -1.231145e+002  8.569023e+001  0.000000e+000
      vertex -1.311520e+002  7.279530e+001  5.000000e+001
      vertex -1.231145e+002  8.569023e+001  5.000000e+001
    endloop
  endfacet
  facet normal -7.907758e-001  6.121060e-001  0.000000e+000
    outer loop
      vertex -1.231145e+002  8.569023e+001  0.000000e+000
      vertex -1.231145e+002  8.569023e+001  5.000000e+001
      vertex -1.138137e+002  9.770587e+001  0.000000e+000
    endloop
  endfacet
  facet normal -7.907758e-001  6.121060e-001  0.000000e+000
    outer loop
      vertex -1.138137e+002  9.770587e+001  0.000000e+000
      vertex -1.231145e+002  8.569023e+001  5.000000e+001
      vertex -1.138137e+002  9.770587e+001  5.000000e+001
    endloop
  endfacet
  facet normal -7.247928e-001  6.889669e-001  0.000000e+000
    outer loop
      vertex -1.138137e+002  9.770587e+001  0.000000e+000
      vertex -1.138137e+002  9.770587e+001  5.000000e+001
      vertex -1.033450e+002  1.087189e+002  0.000000e+000
    endloop
  endfacet
  facet normal -7.247928e-001  6.889669e-001  0.000000e+000
    outer loop
      vertex -1.033450e+002  1.087189e+002  0.000000e+000
      vertex -1.138137e+002  9.770587e+001  5.000000e+001
      vertex -1.033450e+002  1.087189e+002  5.000000e+001
    endloop
  endfacet
  facet normal -6.513724e-001  7.587581e-001  0.000000e+000
    outer loop
      vertex -1.033450e+002  1.087189e+002  0.000000e+000
      vertex -1.033450e+002  1.087189e+002  5.000000e+001
      vertex -9.181590e+001  1.186164e+002  0.000000e+000
    endloop
  endfacet
  facet normal -6.513724e-001  7.587581e-001  0.000000e+000
    outer loop
      vertex -9.181590e+001  1.186164e+002  0.000000e+000
      vertex -1.033450e+002  1.087189e+002  5.000000e+001
      vertex -9.181590e+001  1.186164e+002  5.000000e+001
    endloop
  endfacet
  facet normal -5.712683e-001  8.207634e-001  0.000000e+000
    outer loop
      vertex -9.181590e+001  1.186164e+002  0.000000e+000
      vertex -9.181590e+001  1.186164e+002  5.000000e+001
      vertex -7.934460e+001  1.272966e+002  0.000000e+000
    endloop
  endfacet
  facet normal -5.712683e-001  8.207634e-001  0.000000e+000
    outer loop
      vertex -7.934460e+001  1.272966e+002  0.000000e+000
      vertex -9.181590e+001  1.186164e+002  5.000000e+001
      vertex -7.934460e+001  1.272966e+002  5.000000e+001
    endloop
  endfacet
  facet normal -4.853020e-001  8.743466e-001  0.000000e+000
    outer loop
      vertex -7.934460e+001  1.272966e+002  0.000000e+000
      vertex -7.934460e+001  1.272966e+002  5.000000e+001
      vertex -6.605912e+001  1.346707e+002  0.000000e+000
    endloop
  endfacet
  facet normal -4.853020e-001  8.743466e-001  0.000000e+000
    outer loop
      vertex -6.605912e+001  1.346707e+002  0.000000e+000
      vertex -7.934460e+001  1.272966e+002  5.000000e+001
      vertex -6.605912e+001  1.346707e+002  5.000000e+001
    endloop
  endfacet
  facet normal -3.943561e-001  9.189577e-001  0.000000e+000
    outer loop
      vertex -6.605912e+001  1.346707e+002  0.000000e+000
      vertex -6.605912e+001  1.346707e+002  5.000000e+001
      vertex -5.209579e+001  1.406628e+002  0.000000e+000
    endloop
  endfacet
  facet normal -3.943561e-001  9.189577e-001  0.000000e+000
    outer loop
      vertex -5.209579e+001  1.406628e+002  0.000000e+000
      vertex -6.605912e+001  1.346707e+002  5.000000e+001
      vertex -5.209579e+001  1.406628e+002  5.000000e+001
    endloop
  endfacet
  facet normal -2.993625e-001  9.541395e-001  0.000000e+000
    outer loop
      vertex -5.209579e+001  1.406628e+002  0.000000e+000
      vertex -5.209579e+001  1.406628e+002  5.000000e+001
      vertex -3.759788e+001  1.452116e+002  0.000000e+000
    endloop
  endfacet
  facet normal -2.993625e-001  9.541395e-001  0.000000e+000
    outer loop
      vertex -3.759788e+001  1.452116e+002  0.000000e+000
      vertex -5.209579e+001  1.406628e+002  5.000000e+001
      vertex -3.759788e+001  1.452116e+002  5.000000e+001
    endloop
  endfacet
  facet normal -2.012988e-001  9.795299e-001  0.000000e+000
    outer loop
      vertex -3.759788e+001  1.452116e+002  0.000000e+000
      vertex -3.759788e+001  1.452116e+002  5.000000e+001
      vertex -2.271417e+001  1.482702e+002  0.000000e+000
    endloop
  endfacet
  facet normal -2.012988e-001  9.795299e-001  0.000000e+000
    outer loop
      vertex -2.271417e+001  1.482702e+002  0.000000e+000
      vertex -3.759788e+001  1.452116e+002  5.000000e+001
      vertex -2.271417e+001  1.482702e+002  5.000000e+001
    endloop
  endfacet
  facet normal -1.011686e-001  9.948693e-001  0.000000e+000
    outer loop
      vertex -2.271417e+001  1.482702e+002  0.000000e+000
      vertex -2.271417e+001  1.482702e+002  5.000000e+001
      vertex -7.597375e+000  1.498075e+002  0.000000e+000
    endloop
  endfacet
  facet normal -1.011686e-001  9.948693e-001  0.000000e+000
    outer loop
      vertex -7.597375e+000  1.498075e+002  0.000000e+000
      vertex -2.271417e+001  1.482702e+002  5.000000e+001
      vertex -7.597375e+000  1.498075e+002  5.000000e+001
    endloop
  endfacet
  facet normal  0.000000e+000  1.000000e+000  0.000000e+000
    outer loop
      vertex -7.597375e+000  1.498075e+002  0.000000e+000
      vertex -7.597375e+000  1.498075e+002  5.000000e+001
      vertex  7.597375e+000  1.498075e+002  0.000000e+000
    endloop
  endfacet
  facet normal  0.000000e+000  1.000000e+000  -0.000000e+000
    outer loop
      vertex  7.597375e+000  1.498075e+002  0.000000e+000
      vertex -7.597375e+000  1.498075e+002  5.000000e+001
      vertex  7.597375e+000  1.498075e+002  5.000000e+001
    endloop
  endfacet
  facet normal  1.011686e-001  9.948693e-001  0.000000e+000
    outer loop
      vertex  7.597375e+000  1.498075e+002  0.000000e+000
      vertex  7.597375e+000  1.498075e+002  5.000000e+001
      vertex  2.271417e+001  1.482702e+002  0.000000e+000
    endloop
  endfacet
  facet normal  1.011686e-001  9.948693e-001  -0.000000e+000
    outer loop
      vertex  2.271417e+001  1.482702e+002  0.000000e+000
      vertex  7.597375e+000  1.498075e+002  5.000000e+001
      vertex  2.271417e+001  1.482702e+002  5.000000e+001
    endloop
  endfacet
  facet normal  2.012988e-001  9.795299e-001  0.000000e+000
    outer loop
      vertex  2.271417e+001  1.482702e+002  0.000000e+000
      vertex  2.271417e+001  1.482702e+002  5.000000e+001
      vertex  3.759788e+001  1.452116e+002  0.000000e+000
    endloop
  endfacet
  facet normal  2.012988e-001  9.795299e-001  -0.000000e+000
    outer loop
      vertex  3.759788e+001  1.452116e+002  0.000000e+000
      vertex  2.271417e+001  1.482702e+002  5.000000e+001
      vertex  3.759788e+001  1.452116e+002  5.000000e+001
    endloop
  endfacet
  facet normal  2.993625e-001  9.541395e-001  0.000000e+000
    outer loop
      vertex  3.759788e+001  1.452116e+002  0.000000e+000
      vertex  3.759788e+001  1.452116e+002  5.000000e+001
      vertex  5.209579e+001  1.406628e+002  0.000000e+000
    endloop
  endfacet
  facet normal  2.993625e-001  9.541395e-001  -0.000000e+000
    outer loop
      vertex  5.209579e+001  1.406628e+002  0.000000e+000
      vertex  3.759788e+001  1.452116e+002  5.000000e+001
      vertex  5.209579e+001  1.406628e+002  5.000000e+001
    endloop
  endfacet
  facet normal  3.943561e-001  9.189577e-001  0.000000e+000
    outer loop
      vertex  5.209579e+001  1.406628e+002  0.000000e+000
      vertex  5.209579e+001  1.406628e+002  5.000000e+001
      vertex  6.605912e+001  1.346707e+002  0.000000e+000
    endloop
  endfacet
  facet normal  3.943561e-001  9.189577e-001  -0.000000e+000
    outer loop
      vertex  6.605912e+001  1.346707e+002  0.000000e+000
      vertex  5.209579e+001  1.406628e+002  5.000000e+001
      vertex  6.605912e+001  1.346707e+002  5.000000e+001
    endloop
  endfacet
  facet normal  4.853020e-001  8.743466e-001  0.000000e+000
    outer loop
      vertex  6.605912e+001  1.346707e+002  0.000000e+000
      vertex  6.605912e+001  1.346707e+002  5.000000e+001
      vertex  7.934460e+001  1.272966e+002  0.000000e+000
    endloop
  endfacet
  facet normal  4.853020e-001  8.743466e-001  -0.000000e+000
    outer loop
      vertex  7.934460e+001  1.272966e+002  0.000000e+000
      vertex  6.605912e+001  1.346707e+002  5.000000e+001
      vertex  7.934460e+001  1.272966e+002  5.000000e+001
    endloop
  endfacet
  facet normal  5.712683e-001  8.207634e-001  0.000000e+000
    outer loop
      vertex  7.934460e+001  1.272966e+002  0.000000e+000
      vertex  7.934460e+001  1.272966e+002  5.000000e+001
      vertex  9.181590e+001  1.186164e+002  0.000000e+000
    endloop
  endfacet
  facet normal  5.712683e-001  8.207634e-001  -0.000000e+000
    outer loop
      vertex  9.181590e+001  1.186164e+002  0.000000e+000
      vertex  7.934460e+001  1.272966e+002  5.000000e+001
      vertex  9.181590e+001  1.186164e+002  5.000000e+001
    endloop
  endfacet
  facet normal  6.513724e-001  7.587581e-001  0.000000e+000
    outer loop
      vertex  9.181590e+001  1.186164e+002  0.000000e+000
      vertex  9.181590e+001  1.186164e+002  5.000000e+001
      vertex  1.033450e+002  1.087189e+002  0.000000e+000
    endloop
  endfacet
  facet normal  6.513724e-001  7.587581e-001  -0.000000e+000
    outer loop
      vertex  1.033450e+002  1.087189e+002  0.000000e+000
      vertex  9.181590e+001  1.186164e+002  5.000000e+001
      vertex  1.033450e+002  1.087189e+002  5.000000e+001
    endloop
  endfacet
  facet normal  7.247928e-001  6.889669e-001  0.000000e+000
    outer loop
      vertex  1.033450e+002  1.087189e+002  0.000000e+000
      vertex  1.033450e+002  1.087189e+002  5.000000e+001
      vertex  1.138137e+002  9.770587e+001  0.000000e+000
    endloop
  endfacet
  facet normal  7.247928e-001  6.889669e-001  -0.000000e+000
    outer loop
      vertex  1.138137e+002  9.770587e+001  0.000000e+000
      vertex  1.033450e+002  1.087189e+002  5.000000e+001
      vertex  1.138137e+002  9.770587e+001  5.000000e+001
    endloop
  endfacet
  facet normal  7.907758e-001  6.121060e-001  0.000000e+000
    outer loop
      vertex  1.138137e+002  9.770587e+001  0.000000e+000
      vertex  1.138137e+002  9.770587e+001  5.000000e+001
      vertex  1.231145e+002  8.569023e+001  0.000000e+000
    endloop
  endfacet
  facet normal  7.907758e-001  6.121060e-001  -0.000000e+000
    outer loop
      vertex  1.231145e+002  8.569023e+001  0.000000e+000
      vertex  1.138137e+002  9.770587e+001  5.000000e+001
      vertex  1.231145e+002  8.569023e+001  5.000000e+001
    endloop
  endfacet
  facet normal  8.486442e-001  5.289640e-001  0.000000e+000
    outer loop
      vertex  1.231145e+002  8.569023e+001  0.000000e+000
      vertex  1.231145e+002  8.569023e+001  5.000000e+001
      vertex  1.311520e+002  7.279530e+001  0.000000e+000
    endloop
  endfacet
  facet normal  8.486442e-001  5.289640e-001  -0.000000e+000
    outer loop
      vertex  1.311520e+002  7.279530e+001  0.000000e+000
      vertex  1.231145e+002  8.569023e+001  5.000000e+001
      vertex  1.311520e+002  7.279530e+001  5.000000e+001
    endloop
  endfacet
  facet normal  8.978045e-001  4.403942e-001  0.000000e+000
    outer loop
      vertex  1.311520e+002  7.279530e+001  0.000000e+000
      vertex  1.311520e+002  7.279530e+001  5.000000e+001
      vertex  1.378437e+002  5.915338e+001  0.000000e+000
    endloop
  endfacet
  facet normal  8.978045e-001  4.403942e-001  -0.000000e+000
    outer loop
      vertex  1.378437e+002  5.915338e+001  0.000000e+000
      vertex  1.311520e+002  7.279530e+001  5.000000e+001
      vertex  1.378437e+002  5.915338e+001  5.000000e+001
    endloop
  endfacet
  facet normal  9.377521e-001  3.473056e-001  0.000000e+000
    outer loop
      vertex  1.378437e+002  5.915338e+001  0.000000e+000
      vertex  1.378437e+002  5.915338e+001  5.000000e+001
      vertex  1.431209e+002  4.490447e+001  0.000000e+000
    endloop
  endfacet
  facet normal  9.377521e-001  3.473056e-001  -0.000000e+000
    outer loop
      vertex  1.431209e+002  4.490447e+001  0.000000e+000
      vertex  1.378437e+002  5.915338e+001  5.000000e+001
      vertex  1.431209e+002  4.490447e+001  5.000000e+001
    endloop
  endfacet
  facet normal  9.680772e-001  2.506520e-001  0.000000e+000
    outer loop
      vertex  1.431209e+002  4.490447e+001  0.000000e+000
      vertex  1.431209e+002  4.490447e+001  5.000000e+001
      vertex  1.469295e+002  3.019478e+001  0.000000e+000
    endloop
  endfacet
  facet normal  9.680772e-001  2.506520e-001  -0.000000e+000
    outer loop
      vertex  1.469295e+002  3.019478e+001  0.000000e+000
      vertex  1.431209e+002  4.490447e+001  5.000000e+001
      vertex  1.469295e+002  3.019478e+001  5.000000e+001
    endloop
  endfacet
  facet normal  9.884683e-001  1.514275e-001  0.000000e+000
    outer loop
      vertex  1.469295e+002  3.019478e+001  0.000000e+000
      vertex  1.469295e+002  3.019478e+001  5.000000e+001
      vertex  1.492304e+002  1.517525e+001  0.000000e+000
    endloop
  endfacet
  facet normal  9.884683e-001  1.514275e-001  -0.000000e+000
    outer loop
      vertex  1.492304e+002  1.517525e+001  0.000000e+000
      vertex  1.469295e+002  3.019478e+001  5.000000e+001
      vertex  1.492304e+002  1.517525e+001  5.000000e+001
    endloop
  endfacet
  facet normal  9.987165e-001  5.064956e-002  0.000000e+000
    outer loop
      vertex  1.492304e+002  1.517525e+001  0.000000e+000
      vertex  1.492304e+002  1.517525e+001  5.000000e+001
      vertex  1.500000e+002  0.000000e+000  0.000000e+000
    endloop
  endfacet
  facet normal  9.987165e-001  5.064956e-002  -0.000000e+000
    outer loop
      vertex  1.500000e+002  0.000000e+000  0.000000e+000
      vertex  1.492304e+002  1.517525e+001  5.000000e+001
      vertex  1.500000e+002  0.000000e+000  5.000000e+001
    endloop
  endfacet
endsolid CATIA STL
